<svg id="Layer_1" data-name="Layer 1" xmlns="http://www.w3.org/2000/svg" viewBox="0 0 499.88 150.78"><defs><style>.cls-1{opacity:0.9;}.cls-2{fill:#ef563f;}.cls-3,.cls-4{fill:#fff;}.cls-4{font-size:57.3px;}.cls-4,.cls-9{font-family:Gotham Rounded;}.cls-5{letter-spacing:-1px;}.cls-6{font-size:54.59px;}.cls-7{font-size:36.39px;}.cls-8{fill:#010101;font-size:56.41px;}.cls-9{font-size:22.92px;fill:#383938;}</style></defs><title>logo</title><g class="cls-1"><rect class="cls-2" width="496" height="94" rx="5" ry="5"/></g><path class="cls-3" d="M19.37,41V27.83a5.83,5.83,0,0,1,.78-3.12,2.24,2.24,0,0,1,1.92-1.27H81.46a2.25,2.25,0,0,1,1.92,1.27,5.86,5.86,0,0,1,.78,3.12V41H19.37Zm64.79-1.35v29.7a2.68,2.68,0,0,1-2.7,2.7H22.07a2.68,2.68,0,0,1-2.7-2.7V39.64H84.16Zm-59.39,27h21.6V55.83H24.77v10.8Z" transform="translate(-2 -2)"/><rect class="cls-3" x="19.94" y="52.28" width="30.82" height="15.52"/><path class="cls-2" d="M63.46,58.71H62V50.08h7.19v4.31h1.44v1.44H69.21v1.44H63.46v1.44Zm2.88,1.44h2.87v7.2H62v-7.2H64.9V58.71h1.44v1.44Zm-2.88-4.32h4.32V51.52H63.46v4.32Zm0,5.76v4.31h4.32V61.59H63.46ZM64.9,53h1.44v1.44H64.9V53ZM66.34,63H64.9v1.44h1.44V63Zm10.07,1.44V63H73.53V58.71H69.21v1.44h2.88V63H70.65v1.44h1.44v1.44H75V64.47h1.44Zm0-7.2v1.44h2.88v2.88H75V57.27H72.09V53H70.65V50.08h8.63v7.19H76.41ZM70.65,67.35h1.44V65.91H70.65v1.44Zm7.2-11.51V51.52H73.53v4.32h4.32ZM75,54.39h1.44V53H75v1.44Zm0,11.51v1.44h4.32V65.91H75Zm2.88-1.44h1.44V63H77.85v1.44Z" transform="translate(-2 -2)"/><path class="cls-2" d="M79.56,44v2.1H62V44l5.87-3.77V38.72a1.41,1.41,0,0,1-1-1.09,4.91,4.91,0,0,1-.46-1.84V32.86a4.4,4.4,0,0,1,8.8,0v2.93a4.94,4.94,0,0,1-.46,1.84,1.41,1.41,0,0,1-1,1.09v1.47Z" transform="translate(-2 -2)"/><path class="cls-2" d="M37.67,33a0.87,0.87,0,0,1-.64.27H26.16A0.87,0.87,0,0,1,25.52,33a0.88,0.88,0,0,1-.26-0.63V30.52a0.9,0.9,0,0,1,.9-0.91H37a0.9,0.9,0,0,1,.9.91v1.81A0.88,0.88,0,0,1,37.67,33Zm7.24,5.43a0.86,0.86,0,0,1-.64.27H26.16a0.86,0.86,0,0,1-.64-0.27,0.88,0.88,0,0,1-.26-0.63V36a0.86,0.86,0,0,1,.26-0.64A0.87,0.87,0,0,1,26.16,35h18.1a0.88,0.88,0,0,1,.64.26,0.87,0.87,0,0,1,.26.64v1.81A0.88,0.88,0,0,1,44.91,38.4Zm-3.62,5.43a0.86,0.86,0,0,1-.64.27H26.16a0.86,0.86,0,0,1-.64-0.27,0.88,0.88,0,0,1-.26-0.63V41.38a0.9,0.9,0,0,1,.9-0.9H40.65a0.89,0.89,0,0,1,.9.9v1.81A0.88,0.88,0,0,1,41.29,43.82Z" transform="translate(-2 -2)"/><text class="cls-4" transform="translate(98.28 65.53)"><tspan class="cls-5">T</tspan><tspan x="36.04" y="0">inderMe</tspan><tspan class="cls-6" x="269.01" y="0"> </tspan><tspan class="cls-7" x="285.39" y="0">ca</tspan><tspan class="cls-7" x="327.54" y="0">r</tspan><tspan class="cls-7" x="342.02" y="0">ds</tspan><tspan class="cls-8" x="384.68" y="0"> </tspan></text><text class="cls-9" transform="translate(26.39 119.12)">Hand out <tspan x="112.9" y="0">y</tspan><tspan x="125.85" y="0">our </tspan><tspan x="171.46" y="0">T</tspan><tspan x="185.88" y="0">inder P</tspan><tspan x="267.51" y="0">r</tspan><tspan x="276.57" y="0">ofile in a ca</tspan><tspan x="408.58" y="0">r</tspan><tspan x="417.7" y="0">d.</tspan></text></svg>