<svg id="Layer_1" data-name="Layer 1" xmlns="http://www.w3.org/2000/svg" viewBox="0 0 303 57"><defs><style>.cls-1{opacity:0.9;}.cls-2{fill:#ef543e;}.cls-3{fill:#fff;}</style></defs><title>logo-small</title><g class="cls-1"><path class="cls-2" d="M303,51.77a5,5,0,0,1-5,5H5a5,5,0,0,1-5-5v-47a5,5,0,0,1,5-5H298a5,5,0,0,1,5,5v47Z" transform="translate(0 0.23)"/></g><path class="cls-3" d="M10.73,23.81v-8a3.56,3.56,0,0,1,.48-1.91,1.37,1.37,0,0,1,1.17-.77H48.65a1.37,1.37,0,0,1,1.17.77,3.58,3.58,0,0,1,.48,1.91v8H10.73ZM50.3,23V41.13a1.64,1.64,0,0,1-1.65,1.65H12.38a1.64,1.64,0,0,1-1.65-1.65V23H50.3ZM14,39.48H27.22v-6.6H14v6.6Z" transform="translate(0 0.23)"/><rect class="cls-3" x="12.29" y="32.17" width="18.82" height="9.48"/><path class="cls-2" d="M37.66,34.64H36.78V29.37h4.39V32h0.88v0.88H41.17v0.88H37.66v0.88Zm1.76,0.88h1.76v4.4H36.78v-4.4h1.76V34.64h0.88v0.88Zm-1.76-2.64h2.64V30.25H37.66v2.64Zm0,3.52V39h2.64V36.4H37.66Zm0.88-5.28h0.88V32H38.54V31.13Zm0.88,6.15H38.54v0.88h0.88V37.28Zm6.15,0.88V37.28H43.81V34.64H41.17v0.88h1.76v1.76H42.05v0.88h0.88V39h1.76V38.16h0.88Zm0-4.4v0.88h1.76V36.4H44.69V33.76H42.93V31.13H42.05V29.37h5.27v4.39H45.57Zm-3.52,6.15h0.88V39H42.05v0.88Zm4.4-7V30.25H43.81v2.64h2.64ZM44.69,32h0.88V31.13H44.69V32Zm0,7v0.88h2.64V39H44.69Zm1.76-.88h0.88V37.28H46.45v0.88Z" transform="translate(0 0.23)"/><path class="cls-2" d="M47.49,25.63v1.28H36.75V25.63l3.58-2.3v-0.9a0.86,0.86,0,0,1-.61-0.67,3,3,0,0,1-.28-1.12V18.85a2.69,2.69,0,0,1,5.37,0v1.79a3,3,0,0,1-.28,1.12,0.86,0.86,0,0,1-.61.67v0.9Z" transform="translate(0 0.23)"/><path class="cls-2" d="M21.9,18.92a0.53,0.53,0,0,1-.39.17H14.88a0.53,0.53,0,0,1-.39-0.17,0.54,0.54,0,0,1-.16-0.39V17.42A0.53,0.53,0,0,1,14.48,17a0.53,0.53,0,0,1,.39-0.16h6.64a0.55,0.55,0,0,1,.55.55v1.11A0.54,0.54,0,0,1,21.9,18.92Zm4.42,3.32a0.53,0.53,0,0,1-.39.17H14.88a0.52,0.52,0,0,1-.39-0.17,0.54,0.54,0,0,1-.16-0.39V20.74a0.52,0.52,0,0,1,.16-0.39,0.53,0.53,0,0,1,.39-0.16H25.93a0.54,0.54,0,0,1,.39.16,0.53,0.53,0,0,1,.16.39v1.11A0.54,0.54,0,0,1,26.33,22.23Zm-2.21,3.32a0.53,0.53,0,0,1-.39.17H14.88a0.53,0.53,0,0,1-.39-0.17,0.54,0.54,0,0,1-.16-0.39v-1.1a0.55,0.55,0,0,1,.55-0.55h8.85a0.53,0.53,0,0,1,.39.16,0.53,0.53,0,0,1,.16.39v1.1A0.53,0.53,0,0,1,24.11,25.55Z" transform="translate(0 0.23)"/><path class="cls-3" d="M69.32,19.51h-6a2,2,0,0,1,0-4H79.64a2,2,0,0,1,0,4h-6V38.07a2.17,2.17,0,0,1-4.34,0V19.51Z" transform="translate(0 0.23)"/><path class="cls-3" d="M84.75,16.57a2.45,2.45,0,0,1,4.83,0v0.21a2.44,2.44,0,0,1-4.83,0V16.57Zm0.32,6.9a2.09,2.09,0,0,1,2.1-2.14,2.12,2.12,0,0,1,2.14,2.14V38.1a2.12,2.12,0,0,1-4.24,0V23.47Z" transform="translate(0 0.23)"/><path class="cls-3" d="M94.83,23.47a2.09,2.09,0,0,1,2.1-2.14,2.12,2.12,0,0,1,2.14,2.14v0.91a6.7,6.7,0,0,1,5.78-3.22c4.17,0,6.58,2.8,6.58,7.07V38.1a2.06,2.06,0,0,1-2.1,2.1,2.09,2.09,0,0,1-2.14-2.1V29.52c0-2.87-1.43-4.52-4-4.52s-4.17,1.72-4.17,4.58V38.1a2.12,2.12,0,0,1-4.24,0V23.47Z" transform="translate(0 0.23)"/><path class="cls-3" d="M134.7,38.1a2.12,2.12,0,0,1-4.24,0V36.94a7.4,7.4,0,0,1-6.3,3.47c-4.34,0-8.58-3.47-8.58-9.59V30.75c0-6.12,4.17-9.59,8.58-9.59a7.56,7.56,0,0,1,6.3,3.26v-8a2.12,2.12,0,0,1,4.24,0V38.1Zm-14.84-7.35v0.07c0,3.57,2.45,5.92,5.32,5.92s5.36-2.38,5.36-5.92V30.75c0-3.57-2.52-5.92-5.36-5.92S119.86,27.07,119.86,30.75Z" transform="translate(0 0.23)"/><path class="cls-3" d="M148.49,40.44A9.22,9.22,0,0,1,139,30.85V30.78c0-5.28,3.75-9.63,9-9.63,5.88,0,8.79,4.83,8.79,9.1a2,2,0,0,1-2,2H143.24A5.16,5.16,0,0,0,148.56,37a6.64,6.64,0,0,0,4.38-1.61A1.58,1.58,0,0,1,154,35a1.67,1.67,0,0,1,1.68,1.72,1.85,1.85,0,0,1-.56,1.29A9.48,9.48,0,0,1,148.49,40.44Zm4.2-11c-0.28-2.73-1.89-4.86-4.69-4.86-2.59,0-4.41,2-4.79,4.86h9.49Z" transform="translate(0 0.23)"/><path class="cls-3" d="M161.15,23.47a2.09,2.09,0,0,1,2.1-2.14,2.12,2.12,0,0,1,2.13,2.14v1.89c1-2.31,2.8-4.06,4.66-4.06a2,2,0,0,1,2.1,2.1,2,2,0,0,1-1.68,2c-3,.52-5.08,2.83-5.08,7.21V38.1a2.11,2.11,0,0,1-2.13,2.1,2.08,2.08,0,0,1-2.1-2.1V23.47h0Z" transform="translate(0 0.23)"/><path class="cls-3" d="M176.1,17.55a2.16,2.16,0,0,1,2.17-2.17h0.45a2.27,2.27,0,0,1,2,1.16l7.42,11.62L195.6,16.5a2.16,2.16,0,0,1,2-1.12H198a2.16,2.16,0,0,1,2.17,2.17V38.07A2.13,2.13,0,0,1,198,40.2a2.17,2.17,0,0,1-2.13-2.13V23.36l-6,9a2,2,0,0,1-3.61,0l-5.95-8.93V38.1a2.09,2.09,0,0,1-2.14,2.1,2.06,2.06,0,0,1-2.1-2.1V17.55Z" transform="translate(0 0.23)"/><path class="cls-3" d="M214.46,40.44A9.22,9.22,0,0,1,205,30.85V30.78c0-5.28,3.75-9.63,9-9.63,5.88,0,8.79,4.83,8.79,9.1a2,2,0,0,1-2,2H209.21A5.16,5.16,0,0,0,214.53,37a6.64,6.64,0,0,0,4.38-1.61A1.58,1.58,0,0,1,220,35a1.67,1.67,0,0,1,1.68,1.72,1.85,1.85,0,0,1-.56,1.29A9.48,9.48,0,0,1,214.46,40.44Zm4.2-11c-0.28-2.73-1.89-4.86-4.69-4.86-2.59,0-4.41,2-4.79,4.86h9.49Z" transform="translate(0 0.23)"/><path class="cls-3" d="M235.52,34.22v0A6.06,6.06,0,0,1,241.63,28a5.94,5.94,0,0,1,4.11,1.47,1.27,1.27,0,0,1,.42.93,1.22,1.22,0,0,1-1.24,1.22,1.37,1.37,0,0,1-.8-0.27,3.72,3.72,0,0,0-2.51-1,3.54,3.54,0,0,0-3.4,3.74v0a3.55,3.55,0,0,0,3.51,3.76,3.92,3.92,0,0,0,2.62-1,1.13,1.13,0,0,1,1.89.89,1,1,0,0,1-.38.85,5.75,5.75,0,0,1-4.27,1.67A6,6,0,0,1,235.52,34.22Z" transform="translate(0 0.23)"/><path class="cls-3" d="M248.08,36.65v0c0-2.53,2-3.78,4.85-3.78a9.81,9.81,0,0,1,3.16.49V33c0-1.67-1-2.56-2.91-2.56a7,7,0,0,0-2.6.47,1.53,1.53,0,0,1-.42.07A1.12,1.12,0,0,1,249,29.89a1.17,1.17,0,0,1,.73-1.07,10.06,10.06,0,0,1,3.78-.69,5.26,5.26,0,0,1,3.89,1.31,4.87,4.87,0,0,1,1.27,3.62v5.78a1.28,1.28,0,0,1-1.31,1.29A1.22,1.22,0,0,1,256.06,39V38.56a4.77,4.77,0,0,1-3.82,1.71C250,40.27,248.08,39,248.08,36.65Zm8-.85V35a7.45,7.45,0,0,0-2.67-.47c-1.73,0-2.76.73-2.76,2v0c0,1.13,1,1.78,2.29,1.78C254.77,38.31,256.13,37.29,256.13,35.8Z" transform="translate(0 0.23)"/><path class="cls-3" d="M261.9,29.51a1.33,1.33,0,0,1,1.33-1.36,1.35,1.35,0,0,1,1.36,1.36v1.2c0.62-1.47,1.78-2.58,3-2.58a1.25,1.25,0,0,1,1.33,1.33,1.26,1.26,0,0,1-1.07,1.29c-1.91.33-3.22,1.8-3.22,4.58V38.8a1.34,1.34,0,0,1-1.36,1.33,1.32,1.32,0,0,1-1.33-1.33V29.51h0Z" transform="translate(0 0.23)"/><path class="cls-3" d="M282.29,38.8a1.34,1.34,0,0,1-2.69,0V38.07a4.7,4.7,0,0,1-4,2.2c-2.76,0-5.45-2.2-5.45-6.09v0c0-3.89,2.65-6.09,5.45-6.09a4.8,4.8,0,0,1,4,2.07V25a1.34,1.34,0,0,1,2.69,0V38.8Zm-9.43-4.67v0a3.49,3.49,0,0,0,3.38,3.76,3.54,3.54,0,0,0,3.4-3.76v0a3.52,3.52,0,0,0-3.4-3.76A3.44,3.44,0,0,0,272.86,34.13Z" transform="translate(0 0.23)"/><path class="cls-3" d="M285.23,38.85a1,1,0,0,1-.51-0.93,1.08,1.08,0,0,1,1.09-1.09,1.16,1.16,0,0,1,.58.15,6.2,6.2,0,0,0,3.38,1.13c1.16,0,1.82-.49,1.82-1.27v0c0-.91-1.24-1.22-2.62-1.65-1.73-.49-3.67-1.2-3.67-3.45v0c0-2.22,1.85-3.58,4.18-3.58a8.06,8.06,0,0,1,3.69,1,1.14,1.14,0,0,1,.64,1,1.08,1.08,0,0,1-1.11,1.09,1.05,1.05,0,0,1-.53-0.13,6.41,6.41,0,0,0-2.76-.8c-1,0-1.65.49-1.65,1.16v0c0,0.87,1.27,1.22,2.65,1.67,1.71,0.53,3.65,1.31,3.65,3.42v0c0,2.47-1.91,3.69-4.36,3.69A8,8,0,0,1,285.23,38.85Z" transform="translate(0 0.23)"/></svg>