<?xml version="1.0" encoding="utf-8"?>
<!-- Generator: Adobe Illustrator 16.0.0, SVG Export Plug-In . SVG Version: 6.00 Build 0)  -->
<!DOCTYPE svg PUBLIC "-//W3C//DTD SVG 1.0//EN" "http://www.w3.org/TR/2001/REC-SVG-20010904/DTD/svg10.dtd">
<svg version="1.0" id="Layer_1" xmlns="http://www.w3.org/2000/svg" xmlns:xlink="http://www.w3.org/1999/xlink" x="0px" y="0px"
	 width="302.783px" height="81.768px" viewBox="0 0 302.783 81.768" style="enable-background:new 0 0 302.783 81.768;"
	 xml:space="preserve">
<g style="opacity:0.9;">
	<path style="fill:#EF543E;" d="M303,51.768c0,2.762-2.238,5-5,5H5c-2.761,0-5-2.238-5-5v-47c0-2.761,2.239-5,5-5h293
		c2.762,0,5,2.239,5,5V51.768z"/>
</g>
<g>
	<g>
		<g>
			<path style="fill:#FFFFFF;" d="M10.726,23.812v-8.037c0-0.752,0.158-1.385,0.479-1.906c0.317-0.517,0.708-0.774,1.171-0.774
				h36.276c0.463,0,0.852,0.257,1.17,0.774c0.319,0.521,0.479,1.154,0.479,1.906v8.037H10.726z M50.301,22.989v18.139
				c0,0.461-0.16,0.853-0.479,1.169c-0.318,0.32-0.708,0.479-1.17,0.479H12.375c-0.463,0-0.854-0.159-1.171-0.479
				c-0.321-0.316-0.479-0.708-0.479-1.169V22.989H50.301z M14.022,39.479h13.193v-6.596H14.022V39.479z"/>
			<rect x="12.294" y="31.936" style="fill:#FFFFFF;" width="18.825" height="9.482"/>
		</g>
		<path style="fill:#EF543E;" d="M37.657,34.642h-0.879v-5.273h4.393v2.635h0.88v0.881h-0.88v0.878h-3.514V34.642z M39.415,35.521
			h1.756v4.395h-4.393v-4.395h1.758v-0.88h0.879V35.521z M37.657,32.885h2.637v-2.636h-2.637V32.885z M37.657,36.401v2.635h2.637
			v-2.635H37.657z M38.536,31.126h0.879v0.877h-0.879V31.126z M39.415,37.279h-0.879v0.879h0.879V37.279z M45.568,38.159v-0.879
			H43.81v-2.638h-2.639v0.88h1.759v1.758h-0.879v0.879h0.879v0.877h1.757v-0.877H45.568z M45.568,33.763v0.879h1.756v1.759h-2.637
			v-2.638H42.93v-2.636h-0.879v-1.758h5.273v4.394H45.568z M42.051,39.917h0.879v-0.88h-0.879V39.917z M46.446,32.885v-2.636H43.81
			v2.636H46.446z M44.687,32.004h0.881v-0.877h-0.881V32.004z M44.687,39.036v0.88h2.637v-0.88H44.687z M46.446,38.159h0.878v-0.879
			h-0.878V38.159z"/>
		<path style="fill:#EF543E;" d="M47.494,25.627v1.281H36.747v-1.281l3.583-2.3v-0.896c-0.221,0-0.426-0.223-0.614-0.667
			c-0.188-0.445-0.282-0.82-0.282-1.123v-1.792c0-0.74,0.263-1.373,0.789-1.898c0.526-0.526,1.158-0.788,1.898-0.788
			c0.741,0,1.374,0.262,1.898,0.788s0.788,1.158,0.788,1.898v1.792c0,0.303-0.094,0.678-0.282,1.123
			c-0.188,0.444-0.393,0.667-0.614,0.667v0.896L47.494,25.627z"/>
		<path style="fill:#EF543E;" d="M21.903,18.915c-0.107,0.109-0.237,0.166-0.392,0.166h-6.636c-0.155,0-0.285-0.057-0.392-0.166
			c-0.107-0.11-0.161-0.24-0.161-0.387v-1.107c0-0.153,0.053-0.285,0.161-0.391c0.107-0.107,0.237-0.163,0.392-0.163h6.636
			c0.155,0,0.285,0.055,0.392,0.163c0.107,0.106,0.16,0.237,0.16,0.391v1.107C22.063,18.675,22.01,18.805,21.903,18.915z
			 M26.326,22.231c-0.108,0.11-0.238,0.165-0.393,0.165H14.876c-0.155,0-0.285-0.055-0.392-0.165
			c-0.107-0.11-0.161-0.239-0.161-0.386v-1.107c0-0.155,0.053-0.286,0.161-0.391c0.107-0.107,0.237-0.162,0.392-0.162h11.057
			c0.154,0,0.285,0.055,0.393,0.162c0.106,0.105,0.161,0.236,0.161,0.391v1.107C26.487,21.992,26.432,22.122,26.326,22.231z
			 M24.114,25.548c-0.107,0.11-0.237,0.167-0.392,0.167h-8.846c-0.155,0-0.285-0.058-0.392-0.167
			c-0.107-0.11-0.161-0.239-0.161-0.387v-1.105c0-0.154,0.053-0.285,0.161-0.392c0.107-0.107,0.237-0.16,0.392-0.16h8.846
			c0.155,0,0.285,0.052,0.392,0.16c0.107,0.107,0.16,0.238,0.16,0.392v1.105C24.274,25.309,24.222,25.438,24.114,25.548z"/>
	</g>
</g>
<g>
	<g>
		<path style="fill:#FFFFFF;" d="M69.317,19.513h-5.951c-1.12,0-1.995-0.91-1.995-1.995s0.875-1.995,1.995-1.995h16.277
			c1.085,0,1.96,0.91,1.96,1.995s-0.875,1.995-1.96,1.995h-5.986v18.552c0,1.19-0.98,2.135-2.17,2.135
			c-1.19,0-2.17-0.945-2.17-2.135V19.513z"/>
		<path style="fill:#FFFFFF;" d="M84.751,16.573c0-1.26,1.05-2.065,2.415-2.065c1.365,0,2.416,0.805,2.416,2.065v0.21
			c0,1.26-1.05,2.1-2.416,2.1c-1.365,0-2.415-0.84-2.415-2.1V16.573z M85.066,23.469c0-1.19,0.91-2.135,2.1-2.135
			c1.19,0,2.135,0.945,2.135,2.135V38.1c0,1.19-0.945,2.1-2.135,2.1c-1.155,0-2.1-0.91-2.1-2.1V23.469z"/>
		<path style="fill:#FFFFFF;" d="M94.831,23.469c0-1.19,0.91-2.135,2.101-2.135c1.19,0,2.135,0.945,2.135,2.135v0.91
			c1.19-1.715,2.905-3.221,5.776-3.221c4.166,0,6.581,2.8,6.581,7.071V38.1c0,1.19-0.91,2.1-2.1,2.1s-2.135-0.91-2.135-2.1v-8.576
			c0-2.871-1.435-4.516-3.956-4.516c-2.45,0-4.166,1.715-4.166,4.585V38.1c0,1.19-0.945,2.1-2.135,2.1
			c-1.155,0-2.101-0.91-2.101-2.1V23.469z"/>
		<path style="fill:#FFFFFF;" d="M134.698,38.1c0,1.19-0.945,2.1-2.1,2.1c-1.19,0-2.135-0.91-2.135-2.1v-1.155
			c-1.365,1.925-3.291,3.465-6.301,3.465c-4.34,0-8.576-3.465-8.576-9.591v-0.07c0-6.125,4.165-9.591,8.576-9.591
			c3.045,0,4.971,1.505,6.301,3.255v-8.016c0-1.19,0.945-2.1,2.1-2.1c1.19,0,2.135,0.91,2.135,2.1V38.1z M119.856,30.75v0.07
			c0,3.57,2.45,5.916,5.32,5.916c2.835,0,5.355-2.38,5.355-5.916v-0.07c0-3.57-2.52-5.916-5.355-5.916
			C122.271,24.834,119.856,27.074,119.856,30.75z"/>
		<path style="fill:#FFFFFF;" d="M148.487,40.445c-5.356,0-9.486-3.885-9.486-9.591v-0.07c0-5.285,3.746-9.626,9.031-9.626
			c5.88,0,8.786,4.831,8.786,9.101c0,1.19-0.91,2.03-1.995,2.03h-11.586c0.455,3.01,2.59,4.69,5.32,4.69
			c1.785,0,3.186-0.63,4.375-1.61c0.315-0.245,0.595-0.385,1.085-0.385c0.945,0,1.68,0.735,1.68,1.715
			c0,0.525-0.245,0.98-0.56,1.295C153.457,39.5,151.357,40.445,148.487,40.445z M152.687,29.489c-0.28-2.73-1.89-4.865-4.69-4.865
			c-2.59,0-4.411,1.995-4.795,4.865H152.687z"/>
		<path style="fill:#FFFFFF;" d="M161.155,23.469c0-1.19,0.91-2.135,2.101-2.135c1.189,0,2.135,0.945,2.135,2.135v1.89
			c0.98-2.31,2.801-4.061,4.656-4.061c1.33,0,2.1,0.875,2.1,2.1c0,1.12-0.734,1.855-1.68,2.03c-3.011,0.525-5.076,2.835-5.076,7.211
			v5.46c0,1.155-0.945,2.1-2.135,2.1c-1.155,0-2.101-0.91-2.101-2.1V23.469z"/>
		<path style="fill:#FFFFFF;" d="M176.1,17.553c0-1.19,0.945-2.17,2.171-2.17h0.454c0.945,0,1.576,0.49,1.996,1.155l7.42,11.621
			l7.457-11.656c0.455-0.735,1.084-1.12,1.959-1.12h0.455c1.226,0,2.171,0.98,2.171,2.17v20.512c0,1.19-0.945,2.135-2.171,2.135
			c-1.154,0-2.135-0.98-2.135-2.135V23.364l-5.985,8.996c-0.455,0.7-1.015,1.12-1.82,1.12c-0.771,0-1.33-0.42-1.785-1.12
			l-5.95-8.926V38.1c0,1.19-0.945,2.1-2.136,2.1s-2.101-0.91-2.101-2.1V17.553z"/>
		<path style="fill:#FFFFFF;" d="M214.461,40.445c-5.355,0-9.486-3.885-9.486-9.591v-0.07c0-5.285,3.746-9.626,9.031-9.626
			c5.881,0,8.785,4.831,8.785,9.101c0,1.19-0.91,2.03-1.994,2.03H209.21c0.455,3.01,2.591,4.69,5.321,4.69
			c1.785,0,3.186-0.63,4.375-1.61c0.314-0.245,0.596-0.385,1.085-0.385c0.945,0,1.681,0.735,1.681,1.715
			c0,0.525-0.246,0.98-0.561,1.295C219.432,39.5,217.331,40.445,214.461,40.445z M218.661,29.489c-0.28-2.73-1.89-4.865-4.69-4.865
			c-2.59,0-4.41,1.995-4.795,4.865H218.661z"/>
		<path style="fill:#FFFFFF;" d="M235.518,34.223v-0.044c0-3.334,2.579-6.136,6.113-6.136c1.846,0,3.113,0.6,4.113,1.467
			c0.178,0.155,0.422,0.489,0.422,0.934c0,0.689-0.555,1.223-1.244,1.223c-0.334,0-0.623-0.133-0.801-0.267
			c-0.689-0.578-1.445-1-2.512-1c-1.957,0-3.402,1.689-3.402,3.735v0.044c0,2.09,1.445,3.757,3.514,3.757
			c1.066,0,1.889-0.422,2.623-1.045c0.156-0.133,0.422-0.289,0.733-0.289c0.646,0,1.156,0.534,1.156,1.178
			c0,0.356-0.134,0.645-0.378,0.845c-1.045,1-2.312,1.667-4.269,1.667C238.097,40.292,235.518,37.558,235.518,34.223z"/>
		<path style="fill:#FFFFFF;" d="M248.078,36.646v-0.044c0-2.534,1.979-3.779,4.847-3.779c1.312,0,2.245,0.2,3.157,0.489v-0.289
			c0-1.667-1.023-2.557-2.913-2.557c-1.022,0-1.867,0.178-2.601,0.467c-0.156,0.044-0.289,0.066-0.423,0.066
			c-0.622,0-1.134-0.489-1.134-1.111c0-0.489,0.334-0.912,0.734-1.067c1.111-0.422,2.244-0.689,3.779-0.689
			c1.756,0,3.067,0.467,3.891,1.312c0.867,0.845,1.267,2.09,1.267,3.624v5.78c0,0.733-0.578,1.29-1.312,1.29
			c-0.778,0-1.312-0.534-1.312-1.134v-0.445c-0.801,0.956-2.023,1.712-3.824,1.712C250.035,40.27,248.078,39.003,248.078,36.646z
			 M256.126,35.801v-0.8c-0.688-0.267-1.601-0.467-2.668-0.467c-1.733,0-2.757,0.733-2.757,1.957v0.044c0,1.134,1,1.778,2.29,1.778
			C254.77,38.313,256.126,37.291,256.126,35.801z"/>
		<path style="fill:#FFFFFF;" d="M261.905,29.51c0-0.756,0.578-1.356,1.334-1.356s1.356,0.601,1.356,1.356v1.2
			c0.623-1.467,1.778-2.579,2.957-2.579c0.845,0,1.334,0.556,1.334,1.334c0,0.711-0.467,1.178-1.067,1.289
			c-1.912,0.333-3.224,1.801-3.224,4.58v3.468c0,0.733-0.601,1.334-1.356,1.334c-0.733,0-1.334-0.578-1.334-1.334V29.51z"/>
		<path style="fill:#FFFFFF;" d="M282.291,38.803c0,0.756-0.6,1.334-1.334,1.334c-0.756,0-1.355-0.578-1.355-1.334v-0.734
			c-0.867,1.223-2.09,2.201-4.002,2.201c-2.757,0-5.447-2.201-5.447-6.092v-0.044c0-3.891,2.646-6.091,5.447-6.091
			c1.934,0,3.157,0.956,4.002,2.067v-5.091c0-0.756,0.6-1.333,1.334-1.333c0.756,0,1.355,0.578,1.355,1.333V38.803z M272.865,34.134
			v0.044c0,2.268,1.557,3.757,3.379,3.757c1.801,0,3.402-1.512,3.402-3.757v-0.044c0-2.268-1.602-3.757-3.402-3.757
			C274.399,30.376,272.865,31.799,272.865,34.134z"/>
		<path style="fill:#FFFFFF;" d="M285.226,38.847c-0.289-0.156-0.511-0.489-0.511-0.934c0-0.601,0.467-1.089,1.089-1.089
			c0.222,0,0.423,0.066,0.577,0.155c1.135,0.756,2.312,1.134,3.38,1.134c1.156,0,1.823-0.489,1.823-1.267v-0.044
			c0-0.912-1.245-1.223-2.623-1.645c-1.734-0.489-3.669-1.201-3.669-3.446v-0.044c0-2.223,1.845-3.579,4.18-3.579
			c1.245,0,2.557,0.355,3.69,0.956c0.378,0.2,0.645,0.556,0.645,1.022c0,0.623-0.488,1.089-1.111,1.089
			c-0.223,0-0.355-0.044-0.533-0.133c-0.956-0.489-1.935-0.8-2.757-0.8c-1.045,0-1.646,0.489-1.646,1.156v0.044
			c0,0.867,1.268,1.223,2.646,1.667c1.711,0.534,3.646,1.312,3.646,3.424v0.044c0,2.468-1.912,3.69-4.357,3.69
			C288.205,40.248,286.582,39.781,285.226,38.847z"/>
	</g>
</g>
<g>
	<path style="fill:#383838;" d="M19.319,67.888v-0.028c0-2.787,2.087-5.07,5.057-5.07c1.513,0,2.507,0.447,3.362,1.106
		c0.182,0.14,0.336,0.378,0.336,0.687c0,0.477-0.378,0.84-0.854,0.84c-0.238,0-0.406-0.084-0.518-0.168
		c-0.672-0.546-1.401-0.883-2.339-0.883c-1.863,0-3.236,1.541-3.236,3.461v0.027c0,1.92,1.359,3.475,3.236,3.475
		c1.037,0,1.737-0.337,2.451-0.939c0.126-0.111,0.308-0.195,0.519-0.195c0.434,0,0.812,0.363,0.812,0.798
		c0,0.267-0.126,0.477-0.28,0.616c-0.924,0.812-1.975,1.316-3.558,1.316C21.448,72.93,19.319,70.703,19.319,67.888z"/>
	<path style="fill:#383838;" d="M29.399,70.633v-0.027c0-1.598,1.247-2.382,3.054-2.382c0.827,0,1.415,0.126,1.989,0.308V68.35
		c0-1.051-0.645-1.611-1.835-1.611c-0.645,0-1.177,0.113-1.639,0.295c-0.098,0.027-0.182,0.042-0.266,0.042
		c-0.392,0-0.714-0.308-0.714-0.7c0-0.309,0.21-0.574,0.462-0.672c0.7-0.268,1.415-0.436,2.381-0.436
		c1.106,0,1.933,0.295,2.451,0.827c0.546,0.532,0.798,1.316,0.798,2.283v3.642c0,0.463-0.364,0.812-0.826,0.812
		c-0.491,0-0.827-0.336-0.827-0.715v-0.279c-0.504,0.602-1.275,1.078-2.409,1.078C30.632,72.916,29.399,72.117,29.399,70.633z
		 M34.47,70.101v-0.504c-0.434-0.169-1.008-0.294-1.681-0.294c-1.093,0-1.737,0.462-1.737,1.232v0.027
		c0,0.715,0.63,1.121,1.443,1.121C33.615,71.684,34.47,71.039,34.47,70.101z"/>
	<path style="fill:#383838;" d="M38.107,66.137c0-0.477,0.364-0.854,0.84-0.854c0.477,0,0.854,0.378,0.854,0.854v0.756
		c0.393-0.924,1.121-1.625,1.863-1.625c0.532,0,0.84,0.351,0.84,0.841c0,0.448-0.294,0.743-0.672,0.812
		c-1.205,0.21-2.031,1.135-2.031,2.886v2.186c0,0.462-0.378,0.84-0.854,0.84c-0.462,0-0.84-0.363-0.84-0.84V66.137z"/>
	<path style="fill:#383838;" d="M50.949,71.992c0,0.477-0.378,0.84-0.84,0.84c-0.477,0-0.854-0.363-0.854-0.84v-0.463
		c-0.546,0.771-1.317,1.387-2.521,1.387c-1.737,0-3.432-1.387-3.432-3.838v-0.027c0-2.451,1.667-3.839,3.432-3.839
		c1.219,0,1.989,0.603,2.521,1.303v-3.208c0-0.476,0.378-0.84,0.84-0.84c0.476,0,0.854,0.364,0.854,0.84V71.992z M45.01,69.051
		v0.027c0,1.429,0.98,2.367,2.129,2.367c1.135,0,2.143-0.952,2.143-2.367v-0.027c0-1.43-1.008-2.367-2.143-2.367
		C45.976,66.684,45.01,67.58,45.01,69.051z"/>
	<path style="fill:#383838;" d="M52.793,72.02c-0.182-0.098-0.322-0.309-0.322-0.588c0-0.379,0.294-0.687,0.686-0.687
		c0.14,0,0.266,0.042,0.364,0.099c0.714,0.476,1.457,0.714,2.129,0.714c0.729,0,1.148-0.308,1.148-0.798V70.73
		c0-0.574-0.784-0.77-1.653-1.036c-1.093-0.308-2.311-0.757-2.311-2.171v-0.027c0-1.401,1.163-2.256,2.633-2.256
		c0.784,0,1.611,0.225,2.325,0.602c0.238,0.127,0.406,0.352,0.406,0.645c0,0.393-0.308,0.688-0.701,0.688
		c-0.14,0-0.224-0.029-0.336-0.084c-0.603-0.309-1.219-0.505-1.737-0.505c-0.659,0-1.037,0.308-1.037,0.729v0.028
		c0,0.546,0.798,0.77,1.667,1.051c1.079,0.336,2.297,0.826,2.297,2.156v0.028c0,1.555-1.205,2.325-2.745,2.325
		C54.67,72.902,53.647,72.607,52.793,72.02z"/>
	<path style="fill:#383838;" d="M64.636,70.717v-3.895h-0.28c-0.406,0-0.729-0.321-0.729-0.728s0.322-0.729,0.729-0.729h0.28v-1.261
		c0-0.463,0.378-0.84,0.854-0.84c0.462,0,0.841,0.377,0.841,0.84v1.261h1.331c0.406,0,0.742,0.322,0.742,0.729
		s-0.336,0.728-0.742,0.728h-1.331v3.629c0,0.658,0.336,0.924,0.91,0.924c0.196,0,0.364-0.041,0.42-0.041
		c0.378,0,0.714,0.308,0.714,0.699c0,0.309-0.21,0.561-0.448,0.659c-0.364,0.126-0.714,0.196-1.163,0.196
		C65.519,72.889,64.636,72.342,64.636,70.717z"/>
	<path style="fill:#383838;" d="M69.424,69.106v-0.028c0-2.115,1.681-3.866,3.95-3.866c2.27,0,3.936,1.724,3.936,3.839v0.027
		c0,2.102-1.681,3.852-3.964,3.852C71.091,72.93,69.424,71.207,69.424,69.106z M75.615,69.106v-0.028
		c0-1.303-0.938-2.381-2.269-2.381c-1.359,0-2.227,1.064-2.227,2.354v0.027c0,1.289,0.938,2.367,2.255,2.367
		C74.747,71.445,75.615,70.381,75.615,69.106z"/>
	<path style="fill:#383838;" d="M83.228,63.307c0-0.462,0.364-0.84,0.841-0.84c0.476,0,0.854,0.378,0.854,0.84v3.194
		c0.477-0.687,1.163-1.289,2.312-1.289c1.667,0,2.633,1.12,2.633,2.829v3.951c0,0.477-0.364,0.84-0.84,0.84s-0.854-0.363-0.854-0.84
		v-3.432c0-1.149-0.574-1.808-1.583-1.808c-0.98,0-1.667,0.687-1.667,1.835v3.404c0,0.477-0.378,0.84-0.854,0.84
		c-0.462,0-0.841-0.363-0.841-0.84V63.307z"/>
	<path style="fill:#383838;" d="M91.417,70.633v-0.027c0-1.598,1.247-2.382,3.054-2.382c0.827,0,1.415,0.126,1.989,0.308V68.35
		c0-1.051-0.645-1.611-1.835-1.611c-0.645,0-1.177,0.113-1.639,0.295c-0.098,0.027-0.182,0.042-0.266,0.042
		c-0.392,0-0.714-0.308-0.714-0.7c0-0.309,0.21-0.574,0.462-0.672c0.7-0.268,1.415-0.436,2.381-0.436
		c1.106,0,1.933,0.295,2.451,0.827c0.546,0.532,0.798,1.316,0.798,2.283v3.642c0,0.463-0.364,0.812-0.826,0.812
		c-0.49,0-0.827-0.336-0.827-0.715v-0.279c-0.504,0.602-1.275,1.078-2.409,1.078C92.65,72.916,91.417,72.117,91.417,70.633z
		 M96.488,70.101v-0.504c-0.434-0.169-1.008-0.294-1.681-0.294c-1.093,0-1.737,0.462-1.737,1.232v0.027
		c0,0.715,0.63,1.121,1.443,1.121C95.633,71.684,96.488,71.039,96.488,70.101z"/>
	<path style="fill:#383838;" d="M100.125,66.137c0-0.477,0.364-0.854,0.841-0.854c0.476,0,0.854,0.378,0.854,0.854v0.364
		c0.477-0.687,1.163-1.289,2.312-1.289c1.667,0,2.633,1.12,2.633,2.829v3.951c0,0.477-0.364,0.84-0.84,0.84s-0.854-0.363-0.854-0.84
		v-3.432c0-1.149-0.574-1.808-1.583-1.808c-0.98,0-1.667,0.687-1.667,1.835v3.404c0,0.477-0.378,0.84-0.854,0.84
		c-0.462,0-0.841-0.363-0.841-0.84V66.137z"/>
	<path style="fill:#383838;" d="M116.075,71.992c0,0.477-0.378,0.84-0.84,0.84c-0.477,0-0.854-0.363-0.854-0.84v-0.463
		c-0.546,0.771-1.317,1.387-2.521,1.387c-1.737,0-3.432-1.387-3.432-3.838v-0.027c0-2.451,1.667-3.839,3.432-3.839
		c1.219,0,1.989,0.603,2.521,1.303v-3.208c0-0.476,0.378-0.84,0.84-0.84c0.476,0,0.854,0.364,0.854,0.84V71.992z M110.136,69.051
		v0.027c0,1.429,0.98,2.367,2.129,2.367c1.135,0,2.143-0.952,2.143-2.367v-0.027c0-1.43-1.008-2.367-2.143-2.367
		C111.102,66.684,110.136,67.58,110.136,69.051z"/>
	<path style="fill:#383838;" d="M121.992,69.106v-0.028c0-2.115,1.681-3.866,3.95-3.866c2.27,0,3.936,1.724,3.936,3.839v0.027
		c0,2.102-1.681,3.852-3.964,3.852C123.659,72.93,121.992,71.207,121.992,69.106z M128.184,69.106v-0.028
		c0-1.303-0.938-2.381-2.269-2.381c-1.359,0-2.227,1.064-2.227,2.354v0.027c0,1.289,0.938,2.367,2.255,2.367
		C127.315,71.445,128.184,70.381,128.184,69.106z"/>
	<path style="fill:#383838;" d="M138.166,71.992c0,0.462-0.378,0.84-0.854,0.84c-0.462,0-0.854-0.363-0.854-0.84v-0.379
		c-0.477,0.701-1.163,1.303-2.312,1.303c-1.667,0-2.633-1.12-2.633-2.844v-3.936c0-0.477,0.378-0.854,0.84-0.854
		c0.477,0,0.854,0.378,0.854,0.854v3.432c0,1.148,0.574,1.793,1.583,1.793c0.98,0,1.667-0.672,1.667-1.82v-3.404
		c0-0.477,0.378-0.854,0.854-0.854c0.462,0,0.854,0.378,0.854,0.854V71.992z"/>
	<path style="fill:#383838;" d="M140.626,70.717v-3.895h-0.28c-0.406,0-0.729-0.321-0.729-0.728s0.322-0.729,0.729-0.729h0.28
		v-1.261c0-0.463,0.378-0.84,0.854-0.84c0.462,0,0.841,0.377,0.841,0.84v1.261h1.331c0.406,0,0.742,0.322,0.742,0.729
		s-0.336,0.728-0.742,0.728h-1.331v3.629c0,0.658,0.336,0.924,0.91,0.924c0.196,0,0.364-0.041,0.42-0.041
		c0.378,0,0.714,0.308,0.714,0.699c0,0.309-0.21,0.561-0.448,0.659c-0.364,0.126-0.714,0.196-1.163,0.196
		C141.509,72.889,140.626,72.342,140.626,70.717z"/>
	<path style="fill:#383838;" d="M150.398,74.836c-0.252-0.084-0.533-0.295-0.533-0.701c0-0.42,0.322-0.7,0.687-0.7
		c0.14,0,0.224,0.028,0.308,0.056c0.196,0.057,0.35,0.099,0.588,0.099c0.504,0,0.771-0.21,1.051-0.784l0.056-0.154l-2.745-6.136
		c-0.056-0.126-0.098-0.294-0.098-0.406c0-0.476,0.364-0.826,0.84-0.826c0.434,0,0.672,0.252,0.827,0.644l1.989,4.918l1.849-4.918
		c0.14-0.35,0.378-0.644,0.812-0.644c0.448,0,0.812,0.351,0.812,0.798c0,0.141-0.042,0.322-0.07,0.406l-2.703,6.486
		c-0.63,1.513-1.303,2.072-2.494,2.072C151.099,75.045,150.749,74.976,150.398,74.836z"/>
	<path style="fill:#383838;" d="M157.733,69.106v-0.028c0-2.115,1.681-3.866,3.95-3.866c2.27,0,3.936,1.724,3.936,3.839v0.027
		c0,2.102-1.68,3.852-3.963,3.852C159.4,72.93,157.733,71.207,157.733,69.106z M163.925,69.106v-0.028
		c0-1.303-0.938-2.381-2.269-2.381c-1.359,0-2.227,1.064-2.227,2.354v0.027c0,1.289,0.938,2.367,2.255,2.367
		C163.057,71.445,163.925,70.381,163.925,69.106z"/>
	<path style="fill:#383838;" d="M173.907,71.992c0,0.462-0.378,0.84-0.854,0.84c-0.463,0-0.854-0.363-0.854-0.84v-0.379
		c-0.477,0.701-1.163,1.303-2.312,1.303c-1.666,0-2.633-1.12-2.633-2.844v-3.936c0-0.477,0.378-0.854,0.84-0.854
		c0.477,0,0.854,0.378,0.854,0.854v3.432c0,1.148,0.574,1.793,1.583,1.793c0.98,0,1.667-0.672,1.667-1.82v-3.404
		c0-0.477,0.378-0.854,0.854-0.854c0.462,0,0.854,0.378,0.854,0.854V71.992z"/>
	<path style="fill:#383838;" d="M176.018,66.137c0-0.477,0.363-0.854,0.84-0.854s0.854,0.378,0.854,0.854v0.756
		c0.393-0.924,1.12-1.625,1.863-1.625c0.532,0,0.841,0.351,0.841,0.841c0,0.448-0.295,0.743-0.673,0.812
		c-1.204,0.21-2.031,1.135-2.031,2.886v2.186c0,0.462-0.378,0.84-0.854,0.84c-0.462,0-0.84-0.363-0.84-0.84V66.137z"/>
	<path style="fill:#383838;" d="M188.604,64.554h-2.381c-0.448,0-0.799-0.364-0.799-0.798c0-0.435,0.351-0.799,0.799-0.799h6.514
		c0.434,0,0.784,0.364,0.784,0.799c0,0.434-0.351,0.798-0.784,0.798h-2.396v7.425c0,0.476-0.392,0.854-0.868,0.854
		s-0.869-0.378-0.869-0.854V64.554z"/>
	<path style="fill:#383838;" d="M194.777,63.377c0-0.504,0.42-0.826,0.966-0.826s0.967,0.322,0.967,0.826v0.084
		c0,0.504-0.421,0.841-0.967,0.841s-0.966-0.337-0.966-0.841V63.377z M194.902,66.137c0-0.477,0.365-0.854,0.841-0.854
		c0.477,0,0.854,0.378,0.854,0.854v5.855c0,0.477-0.378,0.84-0.854,0.84c-0.462,0-0.841-0.363-0.841-0.84V66.137z"/>
	<path style="fill:#383838;" d="M198.809,66.137c0-0.477,0.364-0.854,0.841-0.854c0.476,0,0.854,0.378,0.854,0.854v0.364
		c0.477-0.687,1.162-1.289,2.311-1.289c1.668,0,2.634,1.12,2.634,2.829v3.951c0,0.477-0.364,0.84-0.841,0.84
		c-0.476,0-0.854-0.363-0.854-0.84v-3.432c0-1.149-0.574-1.808-1.584-1.808c-0.98,0-1.666,0.687-1.666,1.835v3.404
		c0,0.477-0.379,0.84-0.854,0.84c-0.462,0-0.841-0.363-0.841-0.84V66.137z"/>
	<path style="fill:#383838;" d="M214.759,71.992c0,0.477-0.378,0.84-0.841,0.84c-0.477,0-0.854-0.363-0.854-0.84v-0.463
		c-0.547,0.771-1.317,1.387-2.521,1.387c-1.737,0-3.432-1.387-3.432-3.838v-0.027c0-2.451,1.666-3.839,3.432-3.839
		c1.219,0,1.988,0.603,2.521,1.303v-3.208c0-0.476,0.377-0.84,0.84-0.84c0.477,0,0.854,0.364,0.854,0.84V71.992z M208.82,69.051
		v0.027c0,1.429,0.98,2.367,2.129,2.367c1.135,0,2.143-0.952,2.143-2.367v-0.027c0-1.43-1.008-2.367-2.143-2.367
		C209.786,66.684,208.82,67.58,208.82,69.051z"/>
	<path style="fill:#383838;" d="M220.273,72.93c-2.145,0-3.797-1.555-3.797-3.838v-0.027c0-2.115,1.499-3.853,3.614-3.853
		c2.353,0,3.516,1.933,3.516,3.642c0,0.477-0.364,0.812-0.798,0.812h-4.637c0.182,1.205,1.036,1.877,2.129,1.877
		c0.715,0,1.275-0.252,1.751-0.644c0.126-0.099,0.238-0.154,0.435-0.154c0.378,0,0.672,0.294,0.672,0.687
		c0,0.21-0.098,0.393-0.225,0.518C222.262,72.553,221.422,72.93,220.273,72.93z M221.953,68.546
		c-0.111-1.093-0.756-1.946-1.877-1.946c-1.036,0-1.765,0.798-1.918,1.946H221.953z"/>
	<path style="fill:#383838;" d="M225.339,66.137c0-0.477,0.364-0.854,0.841-0.854s0.854,0.378,0.854,0.854v0.756
		c0.393-0.924,1.121-1.625,1.863-1.625c0.533,0,0.841,0.351,0.841,0.841c0,0.448-0.294,0.743-0.673,0.812
		c-1.204,0.21-2.031,1.135-2.031,2.886v2.186c0,0.462-0.377,0.84-0.854,0.84c-0.463,0-0.841-0.363-0.841-0.84V66.137z"/>
	<path style="fill:#383838;" d="M235.32,66.137c0-0.477,0.364-0.854,0.841-0.854c0.476,0,0.854,0.378,0.854,0.854V66.6
		c0.546-0.771,1.316-1.388,2.521-1.388c1.736,0,3.432,1.373,3.432,3.839v0.027c0,2.451-1.682,3.838-3.432,3.838
		c-1.232,0-2.004-0.616-2.521-1.303v2.619c0,0.477-0.379,0.841-0.854,0.841c-0.462,0-0.841-0.364-0.841-0.841V66.137z
		 M241.246,69.078v-0.027c0-1.43-0.967-2.367-2.115-2.367s-2.158,0.951-2.158,2.367v0.027c0,1.415,1.01,2.367,2.158,2.367
		C240.293,71.445,241.246,70.535,241.246,69.078z"/>
	<path style="fill:#383838;" d="M244.715,66.137c0-0.477,0.363-0.854,0.84-0.854s0.854,0.378,0.854,0.854v0.756
		c0.393-0.924,1.12-1.625,1.863-1.625c0.532,0,0.841,0.351,0.841,0.841c0,0.448-0.295,0.743-0.673,0.812
		c-1.204,0.21-2.031,1.135-2.031,2.886v2.186c0,0.462-0.378,0.84-0.854,0.84c-0.462,0-0.84-0.363-0.84-0.84V66.137z"/>
	<path style="fill:#383838;" d="M249.838,69.106v-0.028c0-2.115,1.682-3.866,3.95-3.866c2.27,0,3.937,1.724,3.937,3.839v0.027
		c0,2.102-1.682,3.852-3.965,3.852C251.505,72.93,249.838,71.207,249.838,69.106z M256.029,69.106v-0.028
		c0-1.303-0.938-2.381-2.27-2.381c-1.358,0-2.227,1.064-2.227,2.354v0.027c0,1.289,0.938,2.367,2.255,2.367
		C255.161,71.445,256.029,70.381,256.029,69.106z"/>
	<path style="fill:#383838;" d="M259.82,66.822h-0.295c-0.392,0-0.714-0.308-0.714-0.699c0-0.393,0.322-0.715,0.714-0.715h0.295
		v-0.547c0-0.812,0.21-1.428,0.602-1.82c0.393-0.393,0.939-0.588,1.668-0.588c0.336,0,0.615,0.027,0.854,0.069
		c0.309,0.042,0.589,0.322,0.589,0.7c0,0.393-0.322,0.715-0.714,0.701c-0.099-0.014-0.238-0.028-0.351-0.028
		c-0.645,0-0.98,0.351-0.98,1.12v0.406h1.316c0.406,0,0.714,0.309,0.714,0.701c0,0.392-0.321,0.699-0.714,0.699h-1.288v5.17
		c0,0.462-0.379,0.84-0.855,0.84c-0.462,0-0.84-0.378-0.84-0.84V66.822z M264.681,63.377c0-0.504,0.421-0.826,0.967-0.826
		s0.967,0.322,0.967,0.826v0.084c0,0.504-0.421,0.841-0.967,0.841s-0.967-0.337-0.967-0.841V63.377z M264.807,66.137
		c0-0.477,0.364-0.854,0.841-0.854s0.854,0.378,0.854,0.854v5.855c0,0.477-0.378,0.84-0.854,0.84c-0.462,0-0.841-0.363-0.841-0.84
		V66.137z"/>
	<path style="fill:#383838;" d="M268.808,63.307c0-0.462,0.363-0.84,0.84-0.84s0.854,0.378,0.854,0.84v8.686
		c0,0.477-0.378,0.84-0.854,0.84c-0.462,0-0.84-0.363-0.84-0.84V63.307z"/>
	<path style="fill:#383838;" d="M276.103,72.93c-2.143,0-3.796-1.555-3.796-3.838v-0.027c0-2.115,1.499-3.853,3.614-3.853
		c2.354,0,3.516,1.933,3.516,3.642c0,0.477-0.364,0.812-0.798,0.812h-4.637c0.182,1.205,1.036,1.877,2.129,1.877
		c0.715,0,1.274-0.252,1.751-0.644c0.126-0.099,0.238-0.154,0.435-0.154c0.378,0,0.672,0.294,0.672,0.687
		c0,0.21-0.098,0.393-0.224,0.518C278.092,72.553,277.252,72.93,276.103,72.93z M277.784,68.546
		c-0.112-1.093-0.757-1.946-1.878-1.946c-1.036,0-1.765,0.798-1.919,1.946H277.784z"/>
	<path style="fill:#383838;" d="M281.855,70.76c0.561,0,0.98,0.42,0.98,0.966v0.14c0,0.547-0.42,0.967-0.98,0.967
		c-0.574,0-0.994-0.42-0.994-0.967v-0.14C280.861,71.18,281.281,70.76,281.855,70.76z"/>
</g>
</svg>
