<svg id="Layer_1" data-name="Layer 1" xmlns="http://www.w3.org/2000/svg" viewBox="0 0 498 123.16"><defs><style>.cls-1{opacity:0.9;}.cls-2{fill:#ef563f;}.cls-3{fill:#fff;}.cls-4{fill:#383938;}</style></defs><title>logo</title><g class="cls-1"><rect class="cls-2" width="498" height="94" rx="5" ry="5"/></g><path class="cls-3" d="M18.24,40V26.77A5.85,5.85,0,0,1,19,23.64a2.25,2.25,0,0,1,1.92-1.27H80.56a2.25,2.25,0,0,1,1.92,1.27,5.88,5.88,0,0,1,.79,3.13V40h-65Zm65-1.35V68.43a2.69,2.69,0,0,1-2.71,2.71H20.95a2.69,2.69,0,0,1-2.71-2.71V38.62h65ZM23.65,65.72H45.33V54.88H23.65V65.72Z" transform="translate(-1 -1)"/><rect class="cls-3" x="19.81" y="52.33" width="30.93" height="15.58"/><path class="cls-2" d="M62.49,57.77H61V49.11h7.22v4.33h1.45v1.45H68.26v1.44H62.49v1.44Zm2.89,1.45h2.89v7.22H61V59.22h2.89V57.77h1.44v1.45Zm-2.89-4.33h4.33V50.55H62.49v4.33Zm0,5.78V65h4.33V60.66H62.49ZM63.93,52h1.44v1.44H63.93V52Zm1.44,10.11H63.93v1.45h1.44V62.11Zm10.11,1.45V62.11H72.6V57.77H68.26v1.45h2.89v2.89H69.71v1.45h1.44V65H74V63.55h1.45Zm0-7.22v1.44h2.89v2.89H74V56.33H71.15V52H69.71V49.11h8.66v7.22H75.49ZM69.71,66.44h1.44V65H69.71v1.45Zm7.22-11.55V50.55H72.6v4.33h4.33ZM74,53.44h1.45V52H74v1.44ZM74,65v1.45h4.33V65H74Zm2.89-1.44h1.44V62.11H76.93v1.45Z" transform="translate(-1 -1)"/><path class="cls-2" d="M78.65,43v2.1H61V43l5.89-3.78V37.71a1.41,1.41,0,0,1-1-1.1,4.93,4.93,0,0,1-.46-1.85V31.82a4.41,4.41,0,0,1,8.83,0v2.94a5,5,0,0,1-.46,1.85,1.41,1.41,0,0,1-1,1.1v1.47Z" transform="translate(-1 -1)"/><path class="cls-2" d="M36.6,31.93a0.87,0.87,0,0,1-.64.27H25.06a0.87,0.87,0,0,1-.64-0.27,0.89,0.89,0,0,1-.26-0.64V29.47a0.91,0.91,0,0,1,.91-0.91H36a0.91,0.91,0,0,1,.91.91v1.82A0.89,0.89,0,0,1,36.6,31.93Zm7.27,5.45a0.87,0.87,0,0,1-.65.27H25.06a0.86,0.86,0,0,1-.64-0.27,0.88,0.88,0,0,1-.26-0.63V34.92a0.86,0.86,0,0,1,.26-0.64A0.88,0.88,0,0,1,25.06,34H43.22a0.88,0.88,0,0,1,.65.27,0.87,0.87,0,0,1,.26.64v1.82A0.89,0.89,0,0,1,43.87,37.38Zm-3.63,5.45a0.87,0.87,0,0,1-.64.28H25.06a0.87,0.87,0,0,1-.64-0.28,0.88,0.88,0,0,1-.26-0.64V40.38a0.9,0.9,0,0,1,.91-0.91H39.59a0.9,0.9,0,0,1,.91.91v1.82A0.88,0.88,0,0,1,40.24,42.83Z" transform="translate(-1 -1)"/><path class="cls-3" d="M114.52,32.91h-9.78a3.28,3.28,0,0,1,0-6.56h26.75a3.28,3.28,0,0,1,0,6.56h-9.84V63.4a3.57,3.57,0,0,1-7.13,0V32.91Z" transform="translate(-1 -1)"/><path class="cls-3" d="M139.88,28.08c0-2.07,1.73-3.39,4-3.39s4,1.32,4,3.39v0.35c0,2.07-1.73,3.45-4,3.45s-4-1.38-4-3.45V28.08Zm0.52,11.33a3.44,3.44,0,0,1,3.45-3.51,3.49,3.49,0,0,1,3.51,3.51v24a3.48,3.48,0,0,1-7,0v-24Z" transform="translate(-1 -1)"/><path class="cls-3" d="M156.44,39.41a3.44,3.44,0,0,1,3.45-3.51,3.49,3.49,0,0,1,3.51,3.51v1.5c2-2.82,4.77-5.29,9.49-5.29,6.84,0,10.81,4.6,10.81,11.62V63.45a3.39,3.39,0,0,1-3.45,3.45,3.44,3.44,0,0,1-3.51-3.45V49.36c0-4.72-2.36-7.42-6.5-7.42s-6.84,2.82-6.84,7.53v14a3.48,3.48,0,0,1-7,0v-24Z" transform="translate(-1 -1)"/><path class="cls-3" d="M222,63.45a3.48,3.48,0,0,1-7,0v-1.9c-2.24,3.16-5.41,5.69-10.35,5.69-7.13,0-14.09-5.69-14.09-15.76V51.38c0-10.07,6.84-15.76,14.09-15.76A12.42,12.42,0,0,1,215,41V27.79a3.48,3.48,0,0,1,7,0V63.45ZM197.56,51.38v0.11c0,5.87,4,9.72,8.74,9.72s8.8-3.91,8.8-9.72V51.38c0-5.87-4.14-9.72-8.8-9.72S197.56,45.34,197.56,51.38Z" transform="translate(-1 -1)"/><path class="cls-3" d="M244.61,67.31c-8.8,0-15.59-6.38-15.59-15.76V51.43c0-8.68,6.15-15.82,14.84-15.82,9.66,0,14.44,7.94,14.44,15A3.25,3.25,0,0,1,255,53.91H236c0.75,4.95,4.26,7.71,8.74,7.71A10.92,10.92,0,0,0,251.91,59a2.59,2.59,0,0,1,1.78-.63,2.74,2.74,0,0,1,2.76,2.82,3,3,0,0,1-.92,2.13A15.59,15.59,0,0,1,244.61,67.31Zm6.9-18c-0.46-4.49-3.11-8-7.71-8-4.26,0-7.25,3.28-7.88,8h15.59Z" transform="translate(-1 -1)"/><path class="cls-3" d="M265.43,39.41a3.44,3.44,0,0,1,3.45-3.51,3.49,3.49,0,0,1,3.51,3.51v3.11c1.61-3.8,4.6-6.67,7.65-6.67a3.23,3.23,0,0,1,3.45,3.45,3.26,3.26,0,0,1-2.76,3.34c-4.95.86-8.34,4.66-8.34,11.85v9a3.47,3.47,0,0,1-3.51,3.45,3.42,3.42,0,0,1-3.45-3.45v-24Z" transform="translate(-1 -1)"/><path class="cls-3" d="M290,29.69a3.55,3.55,0,0,1,3.57-3.57h0.75a3.73,3.73,0,0,1,3.28,1.9l12.19,19.1L322,28a3.56,3.56,0,0,1,3.22-1.84H326a3.55,3.55,0,0,1,3.57,3.57V63.4A3.5,3.5,0,0,1,326,66.91a3.56,3.56,0,0,1-3.51-3.51V39.24L312.65,54a3.3,3.3,0,0,1-5.92,0l-9.78-14.67v24.1a3.44,3.44,0,0,1-3.51,3.45A3.39,3.39,0,0,1,290,63.45V29.69Z" transform="translate(-1 -1)"/><path class="cls-3" d="M353,67.31c-8.8,0-15.59-6.38-15.59-15.76V51.43c0-8.68,6.16-15.82,14.84-15.82,9.66,0,14.44,7.94,14.44,15a3.25,3.25,0,0,1-3.28,3.34h-19c0.75,4.95,4.26,7.71,8.74,7.71A10.91,10.91,0,0,0,360.33,59a2.59,2.59,0,0,1,1.78-.63,2.74,2.74,0,0,1,2.76,2.82,3,3,0,0,1-.92,2.13A15.59,15.59,0,0,1,353,67.31Zm6.9-18c-0.46-4.49-3.11-8-7.71-8-4.26,0-7.25,3.28-7.88,8h15.59Z" transform="translate(-1 -1)"/><path class="cls-3" d="M387.62,57.08V57a10,10,0,0,1,10-10.08,9.76,9.76,0,0,1,6.76,2.41,2.09,2.09,0,0,1,.69,1.53,2,2,0,0,1-2,2,2.25,2.25,0,0,1-1.32-.44,6.12,6.12,0,0,0-4.13-1.64c-3.22,0-5.59,2.78-5.59,6.14V57c0,3.43,2.37,6.17,5.77,6.17a6.44,6.44,0,0,0,4.31-1.72,1.86,1.86,0,0,1,3.11,1.46,1.73,1.73,0,0,1-.62,1.39,9.44,9.44,0,0,1-7,2.74A9.85,9.85,0,0,1,387.62,57.08Z" transform="translate(-1 -1)"/><path class="cls-3" d="M408.26,61.06V61c0-4.16,3.25-6.21,8-6.21a16.12,16.12,0,0,1,5.19.8V55.11c0-2.74-1.68-4.2-4.79-4.2a11.45,11.45,0,0,0-4.27.77,2.49,2.49,0,0,1-.69.11A1.84,1.84,0,0,1,409.8,50,1.93,1.93,0,0,1,411,48.21a16.53,16.53,0,0,1,6.21-1.13c2.89,0,5,.77,6.39,2.16a8,8,0,0,1,2.08,6v9.5a2.11,2.11,0,0,1-2.16,2.12,2,2,0,0,1-2.16-1.86V64.21A7.84,7.84,0,0,1,415.09,67C411.48,67,408.26,64.94,408.26,61.06Zm13.22-1.39V58.36a12.26,12.26,0,0,0-4.38-.77c-2.85,0-4.53,1.21-4.53,3.22v0.07c0,1.86,1.64,2.92,3.76,2.92C419.26,63.8,421.49,62.12,421.49,59.68Z" transform="translate(-1 -1)"/><path class="cls-3" d="M431,49.34a2.18,2.18,0,0,1,2.19-2.23,2.21,2.21,0,0,1,2.23,2.23v2c1-2.41,2.92-4.24,4.86-4.24a2.05,2.05,0,0,1,2.19,2.19,2.07,2.07,0,0,1-1.75,2.12c-3.14.55-5.3,3-5.3,7.53v5.7a2.21,2.21,0,0,1-2.23,2.19A2.18,2.18,0,0,1,431,64.61V49.34Z" transform="translate(-1 -1)"/><path class="cls-3" d="M464.48,64.61a2.21,2.21,0,0,1-4.42,0V63.4A7.72,7.72,0,0,1,453.49,67c-4.53,0-9-3.62-9-10V56.94c0-6.39,4.35-10,9-10a7.89,7.89,0,0,1,6.58,3.4V42a2.21,2.21,0,0,1,4.42,0V64.61ZM449,56.94V57c0,3.73,2.56,6.17,5.55,6.17s5.59-2.48,5.59-6.17V56.94c0-3.73-2.63-6.17-5.59-6.17S449,53.1,449,56.94Z" transform="translate(-1 -1)"/><path class="cls-3" d="M469.3,64.68a1.69,1.69,0,0,1-.84-1.53,1.77,1.77,0,0,1,1.79-1.79,1.92,1.92,0,0,1,.95.26,10.19,10.19,0,0,0,5.55,1.86c1.9,0,3-.8,3-2.08V61.32c0-1.5-2-2-4.31-2.7-2.85-.8-6-2-6-5.66V52.88c0-3.65,3-5.88,6.87-5.88a13.25,13.25,0,0,1,6.06,1.57,1.87,1.87,0,0,1,1.06,1.68A1.78,1.78,0,0,1,481.58,52a1.73,1.73,0,0,1-.88-0.22,10.52,10.52,0,0,0-4.53-1.32c-1.72,0-2.7.8-2.7,1.9v0.07c0,1.42,2.08,2,4.35,2.74,2.81,0.88,6,2.16,6,5.63v0.07c0,4.06-3.14,6.06-7.16,6.06A13.19,13.19,0,0,1,469.3,64.68Z" transform="translate(-1 -1)"/><path class="cls-4" d="M29.36,105.59a1.42,1.42,0,0,1,2.83,0V111h7.69v-5.41a1.42,1.42,0,0,1,2.83,0v13.54a1.42,1.42,0,0,1-2.83,0v-5.5H32.19v5.5a1.42,1.42,0,0,1-2.83,0V105.59Z" transform="translate(-1 -1)"/><path class="cls-4" d="M45.72,116.91v0c0-2.63,2-3.91,5-3.91a10.18,10.18,0,0,1,3.27.51v-0.3c0-1.73-1.06-2.65-3-2.65a7.23,7.23,0,0,0-2.69.48,1.61,1.61,0,0,1-.44.07,1.16,1.16,0,0,1-1.17-1.15,1.21,1.21,0,0,1,.76-1.1,10.37,10.37,0,0,1,3.91-.72,5.45,5.45,0,0,1,4,1.36,5,5,0,0,1,1.31,3.75v6a1.33,1.33,0,0,1-1.36,1.34A1.26,1.26,0,0,1,54,119.35v-0.46a4.94,4.94,0,0,1-4,1.77C47.74,120.67,45.72,119.35,45.72,116.91ZM54,116v-0.83a7.69,7.69,0,0,0-2.76-.48c-1.8,0-2.85.76-2.85,2v0c0,1.17,1,1.84,2.37,1.84C52.64,118.64,54,117.58,54,116Z" transform="translate(-1 -1)"/><path class="cls-4" d="M60,109.52a1.38,1.38,0,0,1,1.38-1.4,1.39,1.39,0,0,1,1.4,1.4v0.6a4.41,4.41,0,0,1,3.8-2.12c2.74,0,4.33,1.84,4.33,4.65v6.49a1.36,1.36,0,0,1-1.38,1.38,1.37,1.37,0,0,1-1.4-1.38v-5.64c0-1.89-.94-3-2.6-3a2.7,2.7,0,0,0-2.74,3v5.59a1.39,1.39,0,0,1-2.79,0v-9.62Z" transform="translate(-1 -1)"/><path class="cls-4" d="M86.23,119.15a1.39,1.39,0,0,1-2.79,0v-0.76a4.87,4.87,0,0,1-4.14,2.28c-2.85,0-5.64-2.28-5.64-6.31v0c0-4,2.74-6.31,5.64-6.31a5,5,0,0,1,4.14,2.14v-5.27a1.39,1.39,0,0,1,2.79,0v14.27Zm-9.76-4.83v0a3.62,3.62,0,0,0,3.5,3.89,3.66,3.66,0,0,0,3.52-3.89v0A3.65,3.65,0,0,0,80,110.42,3.56,3.56,0,0,0,76.48,114.31Z" transform="translate(-1 -1)"/><path class="cls-4" d="M96,114.4v0a6.48,6.48,0,0,1,13,0v0a6.35,6.35,0,0,1-6.51,6.33A6.29,6.29,0,0,1,96,114.4Zm10.17,0v0a3.76,3.76,0,0,0-3.73-3.91,3.65,3.65,0,0,0-3.66,3.87v0a3.75,3.75,0,0,0,3.71,3.89A3.65,3.65,0,0,0,106.13,114.4Z" transform="translate(-1 -1)"/><path class="cls-4" d="M122.54,119.15a1.4,1.4,0,0,1-2.81,0v-0.62a4.37,4.37,0,0,1-3.8,2.14c-2.74,0-4.33-1.84-4.33-4.67v-6.47a1.39,1.39,0,1,1,2.79,0v5.64c0,1.89.94,2.95,2.6,2.95a2.68,2.68,0,0,0,2.74-3v-5.59a1.39,1.39,0,0,1,1.4-1.4,1.41,1.41,0,0,1,1.4,1.4v9.62Z" transform="translate(-1 -1)"/><path class="cls-4" d="M126.58,117.05v-6.4h-0.46a1.2,1.2,0,1,1,0-2.39h0.46v-2.07a1.39,1.39,0,0,1,2.79,0v2.07h2.19a1.2,1.2,0,1,1,0,2.39h-2.19v6a1.33,1.33,0,0,0,1.5,1.52,6.75,6.75,0,0,0,.69-0.07,1.17,1.17,0,0,1,1.17,1.15,1.2,1.2,0,0,1-.74,1.08,5.54,5.54,0,0,1-1.91.32C128,120.62,126.58,119.72,126.58,117.05Z" transform="translate(-1 -1)"/><path class="cls-4" d="M142.64,123.82a1.19,1.19,0,0,1-.88-1.15,1.12,1.12,0,0,1,1.13-1.15,1.45,1.45,0,0,1,.51.09,3.12,3.12,0,0,0,1,.16,1.76,1.76,0,0,0,1.73-1.29l0.09-.25-4.51-10.08a1.87,1.87,0,0,1-.16-0.67,1.34,1.34,0,0,1,1.38-1.36,1.4,1.4,0,0,1,1.36,1.06l3.27,8.08,3-8.08a1.43,1.43,0,0,1,1.34-1.06,1.32,1.32,0,0,1,1.34,1.31,2.47,2.47,0,0,1-.12.67l-4.44,10.66c-1,2.49-2.14,3.41-4.1,3.41A4.93,4.93,0,0,1,142.64,123.82Z" transform="translate(-1 -1)"/><path class="cls-4" d="M154.69,114.4v0a6.48,6.48,0,0,1,13,0v0a6.35,6.35,0,0,1-6.51,6.33A6.29,6.29,0,0,1,154.69,114.4Zm10.17,0v0a3.76,3.76,0,0,0-3.73-3.91,3.65,3.65,0,0,0-3.66,3.87v0a3.75,3.75,0,0,0,3.71,3.89A3.65,3.65,0,0,0,164.86,114.4Z" transform="translate(-1 -1)"/><path class="cls-4" d="M181.27,119.15a1.4,1.4,0,0,1-2.81,0v-0.62a4.37,4.37,0,0,1-3.8,2.14c-2.74,0-4.33-1.84-4.33-4.67v-6.47a1.39,1.39,0,1,1,2.79,0v5.64c0,1.89.94,2.95,2.6,2.95a2.68,2.68,0,0,0,2.74-3v-5.59a1.39,1.39,0,0,1,1.4-1.4,1.41,1.41,0,0,1,1.4,1.4v9.62Z" transform="translate(-1 -1)"/><path class="cls-4" d="M184.74,109.52a1.38,1.38,0,0,1,1.38-1.4,1.39,1.39,0,0,1,1.4,1.4v1.24c0.65-1.52,1.84-2.67,3.06-2.67a1.37,1.37,0,0,1,.28,2.72c-2,.35-3.34,1.86-3.34,4.74v3.59a1.39,1.39,0,0,1-1.4,1.38,1.37,1.37,0,0,1-1.38-1.38v-9.62Z" transform="translate(-1 -1)"/><path class="cls-4" d="M205.42,106.92h-3.91a1.31,1.31,0,1,1,0-2.62h10.7a1.31,1.31,0,0,1,0,2.62h-3.94v12.2a1.43,1.43,0,0,1-2.85,0v-12.2Z" transform="translate(-1 -1)"/><path class="cls-4" d="M215.56,105a1.61,1.61,0,0,1,3.18,0v0.14a1.6,1.6,0,0,1-3.18,0V105Zm0.21,4.53a1.38,1.38,0,0,1,1.38-1.4,1.39,1.39,0,0,1,1.4,1.4v9.62a1.39,1.39,0,0,1-2.79,0v-9.62Z" transform="translate(-1 -1)"/><path class="cls-4" d="M222.19,109.52a1.38,1.38,0,0,1,1.38-1.4,1.39,1.39,0,0,1,1.4,1.4v0.6a4.41,4.41,0,0,1,3.8-2.12c2.74,0,4.33,1.84,4.33,4.65v6.49a1.36,1.36,0,0,1-1.38,1.38,1.37,1.37,0,0,1-1.4-1.38v-5.64c0-1.89-.94-3-2.6-3a2.7,2.7,0,0,0-2.74,3v5.59a1.39,1.39,0,0,1-2.79,0v-9.62Z" transform="translate(-1 -1)"/><path class="cls-4" d="M248.4,119.15a1.39,1.39,0,0,1-2.79,0v-0.76a4.87,4.87,0,0,1-4.14,2.28c-2.85,0-5.64-2.28-5.64-6.31v0c0-4,2.74-6.31,5.64-6.31a5,5,0,0,1,4.14,2.14v-5.27a1.39,1.39,0,0,1,2.79,0v14.27Zm-9.76-4.83v0a3.62,3.62,0,0,0,3.5,3.89,3.66,3.66,0,0,0,3.52-3.89v0a3.65,3.65,0,0,0-3.52-3.89A3.56,3.56,0,0,0,238.64,114.31Z" transform="translate(-1 -1)"/><path class="cls-4" d="M257.46,120.69a6.06,6.06,0,0,1-6.24-6.31v0a6,6,0,0,1,5.94-6.33,5.75,5.75,0,0,1,5.78,6,1.3,1.3,0,0,1-1.31,1.34H254a3.39,3.39,0,0,0,3.5,3.08,4.37,4.37,0,0,0,2.88-1.06,1,1,0,0,1,.71-0.25,1.1,1.1,0,0,1,1.1,1.13,1.21,1.21,0,0,1-.37.85A6.23,6.23,0,0,1,257.46,120.69Zm2.76-7.2c-0.18-1.8-1.24-3.2-3.08-3.2s-2.9,1.31-3.15,3.2h6.24Z" transform="translate(-1 -1)"/><path class="cls-4" d="M265.78,109.52a1.38,1.38,0,0,1,1.38-1.4,1.39,1.39,0,0,1,1.4,1.4v1.24c0.65-1.52,1.84-2.67,3.06-2.67a1.37,1.37,0,0,1,.28,2.72c-2,.35-3.34,1.86-3.34,4.74v3.59a1.39,1.39,0,0,1-1.4,1.38,1.37,1.37,0,0,1-1.38-1.38v-9.62Z" transform="translate(-1 -1)"/><path class="cls-4" d="M282.51,105.73a1.4,1.4,0,0,1,1.43-1.43h4.93c3.77,0,6.12,2.14,6.12,5.39v0c0,3.61-2.9,5.5-6.44,5.5h-3.2v3.89a1.42,1.42,0,0,1-2.83,0v-13.4Zm6.12,7c2.14,0,3.48-1.2,3.48-2.88v0c0-1.89-1.36-2.88-3.48-2.88h-3.29v5.8h3.29Z" transform="translate(-1 -1)"/><path class="cls-4" d="M297.55,109.52a1.37,1.37,0,0,1,1.38-1.4,1.39,1.39,0,0,1,1.4,1.4v1.24c0.65-1.52,1.84-2.67,3.06-2.67a1.29,1.29,0,0,1,1.38,1.38,1.31,1.31,0,0,1-1.11,1.34c-2,.35-3.34,1.86-3.34,4.74v3.59a1.39,1.39,0,0,1-1.4,1.38,1.37,1.37,0,0,1-1.38-1.38v-9.62Z" transform="translate(-1 -1)"/><path class="cls-4" d="M306,114.4v0a6.48,6.48,0,0,1,13,0v0a6.35,6.35,0,0,1-6.52,6.33A6.28,6.28,0,0,1,306,114.4Zm10.17,0v0a3.76,3.76,0,0,0-3.73-3.91,3.65,3.65,0,0,0-3.66,3.87v0a3.75,3.75,0,0,0,3.71,3.89A3.65,3.65,0,0,0,316.14,114.4Z" transform="translate(-1 -1)"/><path class="cls-4" d="M322.37,110.65h-0.48a1.16,1.16,0,0,1-1.17-1.15,1.18,1.18,0,0,1,1.17-1.17h0.48v-0.9a4.11,4.11,0,0,1,1-3,3.68,3.68,0,0,1,2.74-1,8,8,0,0,1,1.4.11,1.16,1.16,0,0,1-.21,2.3,4.6,4.6,0,0,0-.58,0c-1.06,0-1.61.58-1.61,1.84v0.67h2.16a1.15,1.15,0,0,1,1.17,1.15,1.16,1.16,0,0,1-1.17,1.15h-2.12v8.5a1.39,1.39,0,0,1-2.79,0v-8.5Zm8-5.66a1.61,1.61,0,0,1,3.18,0v0.14a1.6,1.6,0,0,1-3.18,0V105Zm0.21,4.53a1.38,1.38,0,0,1,1.38-1.4,1.4,1.4,0,0,1,1.4,1.4v9.62a1.39,1.39,0,0,1-2.79,0v-9.62Z" transform="translate(-1 -1)"/><path class="cls-4" d="M337.14,104.87a1.37,1.37,0,0,1,1.38-1.38,1.39,1.39,0,0,1,1.4,1.38v14.27a1.39,1.39,0,0,1-2.78,0V104.87Z" transform="translate(-1 -1)"/><path class="cls-4" d="M349.13,120.69a6.06,6.06,0,0,1-6.24-6.31v0a6,6,0,0,1,5.94-6.33,5.75,5.75,0,0,1,5.78,6,1.3,1.3,0,0,1-1.31,1.34h-7.62a3.39,3.39,0,0,0,3.5,3.08,4.38,4.38,0,0,0,2.88-1.06,1,1,0,0,1,.71-0.25,1.09,1.09,0,0,1,1.1,1.13,1.21,1.21,0,0,1-.37.85A6.23,6.23,0,0,1,349.13,120.69Zm2.76-7.2c-0.18-1.8-1.24-3.2-3.08-3.2s-2.9,1.31-3.15,3.2h6.24Z" transform="translate(-1 -1)"/><path class="cls-4" d="M364.31,105a1.61,1.61,0,0,1,3.18,0v0.14a1.6,1.6,0,0,1-3.18,0V105Zm0.21,4.53a1.38,1.38,0,0,1,1.38-1.4,1.39,1.39,0,0,1,1.4,1.4v9.62a1.39,1.39,0,0,1-2.79,0v-9.62Z" transform="translate(-1 -1)"/><path class="cls-4" d="M370.94,109.52a1.38,1.38,0,0,1,1.38-1.4,1.4,1.4,0,0,1,1.4,1.4v0.6a4.4,4.4,0,0,1,3.8-2.12c2.74,0,4.33,1.84,4.33,4.65v6.49a1.36,1.36,0,0,1-1.38,1.38,1.37,1.37,0,0,1-1.4-1.38v-5.64c0-1.89-.94-3-2.6-3a2.7,2.7,0,0,0-2.74,3v5.59a1.39,1.39,0,0,1-2.79,0v-9.62Z" transform="translate(-1 -1)"/><path class="cls-4" d="M391.3,116.91v0c0-2.63,2-3.91,5-3.91a10.18,10.18,0,0,1,3.27.51v-0.3c0-1.73-1.06-2.65-3-2.65a7.23,7.23,0,0,0-2.69.48,1.62,1.62,0,0,1-.44.07,1.16,1.16,0,0,1-1.17-1.15,1.21,1.21,0,0,1,.76-1.1,10.37,10.37,0,0,1,3.91-.72,5.45,5.45,0,0,1,4,1.36,5,5,0,0,1,1.31,3.75v6a1.33,1.33,0,0,1-1.36,1.34,1.26,1.26,0,0,1-1.36-1.17v-0.46a4.94,4.94,0,0,1-4,1.77C393.32,120.67,391.3,119.35,391.3,116.91Zm8.33-.87v-0.83a7.7,7.7,0,0,0-2.76-.48c-1.79,0-2.85.76-2.85,2v0c0,1.17,1,1.84,2.37,1.84C398.22,118.64,399.63,117.58,399.63,116Z" transform="translate(-1 -1)"/><path class="cls-4" d="M411.84,114.4v0a6.27,6.27,0,0,1,6.33-6.35,6.15,6.15,0,0,1,4.26,1.52,1.32,1.32,0,0,1,.44,1,1.27,1.27,0,0,1-1.29,1.27,1.42,1.42,0,0,1-.83-0.28,3.85,3.85,0,0,0-2.6-1,3.67,3.67,0,0,0-3.52,3.87v0a3.68,3.68,0,0,0,3.64,3.89,4.05,4.05,0,0,0,2.72-1.08,1.17,1.17,0,0,1,2,.92,1.08,1.08,0,0,1-.39.87,6,6,0,0,1-4.42,1.73A6.2,6.2,0,0,1,411.84,114.4Z" transform="translate(-1 -1)"/><path class="cls-4" d="M424.84,116.91v0c0-2.63,2-3.91,5-3.91a10.17,10.17,0,0,1,3.27.51v-0.3c0-1.73-1.06-2.65-3-2.65a7.24,7.24,0,0,0-2.69.48,1.62,1.62,0,0,1-.44.07,1.16,1.16,0,0,1-1.17-1.15,1.21,1.21,0,0,1,.76-1.1,10.38,10.38,0,0,1,3.91-.72,5.45,5.45,0,0,1,4,1.36,5,5,0,0,1,1.31,3.75v6a1.33,1.33,0,0,1-1.36,1.34,1.26,1.26,0,0,1-1.36-1.17v-0.46a4.94,4.94,0,0,1-4,1.77C426.86,120.67,424.84,119.35,424.84,116.91Zm8.33-.87v-0.83a7.69,7.69,0,0,0-2.76-.48c-1.8,0-2.85.76-2.85,2v0c0,1.17,1,1.84,2.37,1.84C431.77,118.64,433.17,117.58,433.17,116Z" transform="translate(-1 -1)"/><path class="cls-4" d="M439.15,109.52a1.38,1.38,0,0,1,1.38-1.4,1.4,1.4,0,0,1,1.4,1.4v1.24c0.64-1.52,1.84-2.67,3.06-2.67a1.37,1.37,0,0,1,.28,2.72c-2,.35-3.34,1.86-3.34,4.74v3.59a1.39,1.39,0,0,1-1.4,1.38,1.37,1.37,0,0,1-1.38-1.38v-9.62Z" transform="translate(-1 -1)"/><path class="cls-4" d="M460.25,119.15a1.39,1.39,0,0,1-2.79,0v-0.76a4.86,4.86,0,0,1-4.14,2.28c-2.85,0-5.64-2.28-5.64-6.31v0c0-4,2.74-6.31,5.64-6.31a5,5,0,0,1,4.14,2.14v-5.27a1.39,1.39,0,0,1,2.79,0v14.27Zm-9.76-4.83v0a3.62,3.62,0,0,0,3.5,3.89,3.66,3.66,0,0,0,3.52-3.89v0a3.65,3.65,0,0,0-3.52-3.89A3.56,3.56,0,0,0,450.49,114.31Z" transform="translate(-1 -1)"/><path class="cls-4" d="M465.1,117.12a1.57,1.57,0,0,1,1.61,1.59v0.23a1.62,1.62,0,0,1-3.24,0v-0.23A1.57,1.57,0,0,1,465.1,117.12Z" transform="translate(-1 -1)"/></svg>