<?xml version="1.0" encoding="utf-8"?>
<!-- Generator: Adobe Illustrator 19.2.0, SVG Export Plug-In . SVG Version: 6.00 Build 0)  -->
<svg version="1.1" id="Layer_1" xmlns="http://www.w3.org/2000/svg" xmlns:xlink="http://www.w3.org/1999/xlink" x="0px" y="0px"
	 width="375.5px" height="500px" viewBox="0 0 375.5 500" enable-background="new 0 0 375.5 500" xml:space="preserve">
<g>
	<path fill="#CACACA" d="M208.4,208.3l165.5,0l0,279.3c0,3-1,5.5-2.9,7.4c-1.9,1.9-4.4,2.9-7.5,2.9l-351.7,0c-3,0-5.5-1-7.5-2.9
		c-1.9-1.9-2.9-4.4-2.9-7.4l0-475.9c0-3,1-5.5,2.9-7.4c1.9-1.9,4.4-2.9,7.4-2.9l196.5,0L208.4,208.3z M373.6,166.3l-124.1,0.5
		L249,42.6L373.6,166.3z"/>
	<g>
		<g>
			<path fill="#FFFFFF" d="M29.3,58.9l-0.2-28.2c0-2.6,0.5-4.9,1.6-6.7c1.1-1.8,2.5-2.7,4.1-2.7l127.3-1c1.6,0,3,0.9,4.1,2.7
				c1.1,1.8,1.7,4.1,1.7,6.7l0.2,28.2L29.3,58.9z M168.1,54.9l0.5,63.6c0,1.6-0.5,3-1.6,4.1c-1.1,1.1-2.5,1.7-4.1,1.7l-127.3,1
				c-1.6,0-3-0.5-4.1-1.7c-1.1-1.1-1.7-2.5-1.7-4.1L29.3,56L168.1,54.9z M41.3,113.7l46.3-0.4l-0.2-23.1l-46.3,0.4L41.3,113.7z"/>
			
				<rect x="35.1" y="87.1" transform="matrix(1 -7.705869e-03 7.705869e-03 1 -0.7971 0.5284)" fill="#FFFFFF" width="66.1" height="33.3"/>
		</g>
		<path fill="#EF563F" d="M124.1,96.1l-3.1,0l-0.1-18.5l15.4-0.1l0.1,9.2l3.1,0l0,3.1l-3.1,0l0,3.1L124.1,93L124.1,96.1z
			 M130.3,99.2l6.2,0l0.1,15.4l-15.4,0.1L121,99.2l6.2,0l0-3.1l3.1,0L130.3,99.2z M124,90l9.3-0.1l-0.1-9.2l-9.3,0.1L124,90z
			 M124.1,102.3l0.1,9.2l9.3-0.1l-0.1-9.2L124.1,102.3z M127.1,83.8l3.1,0l0,3.1l-3.1,0L127.1,83.8z M130.3,105.3l-3.1,0l0,3.1
			l3.1,0L130.3,105.3z M151.9,108.2l0-3.1l-6.2,0l-0.1-9.3l-9.3,0.1l0,3.1l6.2,0l0,6.2l-3.1,0l0,3.1l3.1,0l0,3.1l6.2,0l0-3.1
			L151.9,108.2z M151.8,92.8l0,3.1l6.2,0l0,6.2l-9.3,0.1l-0.1-9.3l-6.2,0.1l-0.1-9.3l-3.1,0l0-6.2l18.5-0.1l0.1,15.4L151.8,92.8z
			 M139.6,114.5l3.1,0l0-3.1l-3.1,0L139.6,114.5z M154.9,89.7l-0.1-9.2l-9.3,0.1l0.1,9.3L154.9,89.7z M148.7,86.7l3.1,0l0-3.1
			l-3.1,0L148.7,86.7z M148.9,111.4l0,3.1l9.2-0.1l0-3.1L148.9,111.4z M155,108.2l3.1,0l0-3.1l-3.1,0L155,108.2z"/>
		<path fill="#EF563F" d="M158.4,64.2l0,4.5L120.7,69l0-4.5l12.5-8.2l0-3.1c-0.8,0-1.5-0.8-2.2-2.3c-0.7-1.6-1-2.9-1-3.9l0-6.3
			c0-2.6,0.9-4.8,2.7-6.7c1.8-1.9,4-2.8,6.6-2.8c2.6,0,4.8,0.9,6.7,2.7c1.9,1.8,2.8,4,2.8,6.6l0.1,6.3c0,1.1-0.3,2.4-1,4
			c-0.6,1.6-1.4,2.3-2.1,2.4l0,3.1L158.4,64.2z"/>
		<path fill="#EF563F" d="M68.4,41.4C68,41.8,67.5,42,67,42l-23.3,0.2c-0.5,0-1-0.2-1.4-0.6c-0.4-0.4-0.6-0.8-0.6-1.4l0-3.9
			c0-0.5,0.2-1,0.5-1.4c0.4-0.4,0.8-0.6,1.4-0.6l23.3-0.2c0.5,0,1,0.2,1.4,0.6c0.4,0.4,0.6,0.8,0.6,1.4l0,3.9
			C68.9,40.5,68.7,41,68.4,41.4z M84,52.9c-0.4,0.4-0.8,0.6-1.4,0.6l-38.8,0.3c-0.5,0-1-0.2-1.4-0.6c-0.4-0.4-0.6-0.8-0.6-1.3l0-3.9
			c0-0.5,0.2-1,0.5-1.4c0.4-0.4,0.8-0.6,1.4-0.6l38.8-0.3c0.5,0,1,0.2,1.4,0.6c0.4,0.4,0.6,0.8,0.6,1.4l0,3.9
			C84.5,52,84.4,52.5,84,52.9z M76.3,64.6c-0.4,0.4-0.8,0.6-1.4,0.6l-31,0.2c-0.6,0-1-0.2-1.4-0.6C42.1,64.5,42,64,42,63.5l0-3.9
			c0-0.5,0.2-1,0.5-1.4c0.4-0.4,0.8-0.6,1.4-0.6l31-0.2c0.5,0,1,0.2,1.4,0.6c0.4,0.4,0.6,0.8,0.6,1.4l0,3.9
			C76.9,63.7,76.7,64.2,76.3,64.6z"/>
	</g>
	<g>
		<g>
			<path fill="#FFFFFF" d="M31,176.4l-0.2-28.2c0-2.6,0.5-4.9,1.6-6.7c1.1-1.8,2.5-2.7,4.1-2.7l127.3-1c1.6,0,3,0.9,4.1,2.7
				c1.1,1.8,1.7,4,1.7,6.7l0.2,28.2L31,176.4z M169.9,172.4l0.5,63.6c0,1.6-0.5,3-1.6,4.1c-1.1,1.1-2.5,1.7-4.1,1.7l-127.3,1
				c-1.6,0-3-0.5-4.1-1.6c-1.1-1.1-1.7-2.5-1.7-4.1L31,173.5L169.9,172.4z M43,231.3l46.3-0.4l-0.2-23.1l-46.3,0.4L43,231.3z"/>
			<polygon fill="#FFFFFF" points="103.1,237.6 37,238.1 36.8,204.8 102.8,204.3 			"/>
		</g>
		<path fill="#EF563F" d="M125.8,213.6l-3.1,0l-0.1-18.5L138,195l0.1,9.2l3.1,0l0,3.1l-3.1,0l0,3.1l-12.3,0.1L125.8,213.6z
			 M132,216.7l6.2-0.1l0.1,15.4l-15.4,0.1l-0.1-15.4l6.2-0.1l0-3.1l3.1,0L132,216.7z M125.8,207.5l9.2-0.1l-0.1-9.2l-9.3,0.1
			L125.8,207.5z M125.9,219.8l0.1,9.2l9.3-0.1l-0.1-9.3L125.9,219.8z M128.8,201.3l3.1,0l0,3.1l-3.1,0L128.8,201.3z M132.1,222.8
			l-3.1,0l0,3.1l3.1,0L132.1,222.8z M153.7,225.8l0-3.1l-6.2,0l-0.1-9.3l-9.3,0.1l0,3.1l6.2,0l0.1,6.2l-3.1,0l0,3.1l3.1,0l0,3.1
			l6.2,0l0-3.1L153.7,225.8z M153.6,210.3l0,3.1l6.2,0l0,6.2l-9.3,0.1l-0.1-9.3l-6.2,0.1l-0.1-9.2l-3.1,0l-0.1-6.2l18.5-0.1
			l0.1,15.4L153.6,210.3z M141.4,232l3.1,0l0-3.1l-3.1,0L141.4,232z M156.6,207.2l-0.1-9.2l-9.3,0.1l0.1,9.3L156.6,207.2z
			 M150.4,204.2l3.1,0l0-3.1l-3.1,0L150.4,204.2z M150.6,228.9l0,3.1l9.2-0.1l0-3.1L150.6,228.9z M156.8,225.7l3.1,0l0-3.1l-3.1,0
			L156.8,225.7z"/>
		<path fill="#EF563F" d="M160.1,181.7l0,4.5l-37.7,0.3l0-4.5l12.5-8.2l0-3.1c-0.8,0-1.5-0.8-2.2-2.3c-0.7-1.6-1-2.9-1-3.9l0-6.3
			c0-2.6,0.9-4.8,2.7-6.7c1.8-1.9,4-2.8,6.6-2.8c2.6,0,4.8,0.9,6.7,2.7c1.9,1.8,2.8,4,2.8,6.6l0,6.3c0,1.1-0.3,2.4-1,4
			c-0.6,1.6-1.4,2.3-2.1,2.3l0,3.1L160.1,181.7z"/>
		<path fill="#EF563F" d="M70.1,158.9c-0.4,0.4-0.8,0.6-1.4,0.6l-23.3,0.2c-0.5,0-1-0.2-1.4-0.6c-0.4-0.4-0.6-0.8-0.6-1.4l0-3.9
			c0-0.5,0.2-1,0.6-1.4c0.4-0.4,0.8-0.6,1.4-0.6l23.3-0.2c0.5,0,1,0.2,1.4,0.6c0.4,0.4,0.6,0.8,0.6,1.4l0,3.9
			C70.7,158,70.5,158.5,70.1,158.9z M85.7,170.4c-0.4,0.4-0.8,0.6-1.4,0.6l-38.8,0.3c-0.5,0-1-0.2-1.4-0.6c-0.4-0.4-0.6-0.8-0.6-1.3
			l0-3.9c0-0.5,0.2-1,0.6-1.4c0.4-0.4,0.8-0.6,1.4-0.6l38.8-0.3c0.5,0,1,0.2,1.4,0.6c0.4,0.4,0.6,0.8,0.6,1.4l0,3.9
			C86.3,169.6,86.1,170,85.7,170.4z M78,182.1c-0.4,0.4-0.8,0.6-1.4,0.6l-31,0.2c-0.6,0-1-0.2-1.4-0.6c-0.4-0.4-0.6-0.8-0.6-1.4
			l0-3.9c0-0.5,0.2-1,0.5-1.4c0.4-0.4,0.8-0.6,1.4-0.6l31-0.2c0.5,0,1,0.2,1.4,0.5c0.4,0.4,0.6,0.8,0.6,1.4l0,3.9
			C78.6,181.3,78.4,181.7,78,182.1z"/>
	</g>
	<g>
		<g>
			<path fill="#FFFFFF" d="M35.3,292.6l-0.2-28.2c0-2.6,0.5-4.9,1.6-6.7c1.1-1.8,2.5-2.7,4.1-2.7l127.3-1c1.6,0,3,0.9,4.1,2.7
				c1.1,1.8,1.7,4.1,1.7,6.7l0.2,28.2L35.3,292.6z M174.2,288.6l0.5,63.6c0,1.6-0.5,3-1.6,4.1c-1.1,1.1-2.5,1.7-4.1,1.7l-127.3,1
				c-1.6,0-3-0.5-4.1-1.6c-1.1-1.1-1.7-2.5-1.7-4.1l-0.5-63.6L174.2,288.6z M47.3,347.5l46.3-0.4L93.4,324l-46.3,0.4L47.3,347.5z"/>
			
				<rect x="41.2" y="320.8" transform="matrix(1 -7.755834e-03 7.755834e-03 1 -2.6148 0.5858)" fill="#FFFFFF" width="66.1" height="33.3"/>
		</g>
		<path fill="#EF563F" d="M130.1,329.9l-3.1,0l-0.1-18.5l15.4-0.1l0.1,9.2l3.1,0l0,3.1l-3.1,0l0,3.1l-12.3,0.1L130.1,329.9z
			 M136.3,332.9l6.2,0l0.1,15.4l-15.4,0.1l-0.1-15.4l6.2-0.1l0-3.1l3.1,0L136.3,332.9z M130.1,323.7l9.3-0.1l-0.1-9.2l-9.3,0.1
			L130.1,323.7z M130.2,336l0.1,9.2l9.3-0.1l-0.1-9.3L130.2,336z M133.1,317.5l3.1,0l0,3.1l-3.1,0L133.1,317.5z M136.4,339.1l-3.1,0
			l0,3.1l3.1,0L136.4,339.1z M158,342l0-3.1l-6.2,0l-0.1-9.3l-9.3,0.1l0,3.1l6.2,0l0.1,6.2l-3.1,0l0,3.1l3.1,0l0,3.1l6.2,0l0-3.1
			L158,342z M157.9,326.6l0,3.1l6.2,0l0,6.2l-9.3,0.1l-0.1-9.3l-6.2,0l-0.1-9.2l-3.1,0l-0.1-6.2l18.5-0.1l0.1,15.4L157.9,326.6z
			 M145.7,348.2l3.1,0l0-3.1l-3.1,0L145.7,348.2z M160.9,323.4l-0.1-9.2l-9.3,0.1l0.1,9.3L160.9,323.4z M154.7,320.4l3.1,0l0-3.1
			l-3.1,0L154.7,320.4z M154.9,345.1l0,3.1l9.3-0.1l0-3.1L154.9,345.1z M161.1,341.9l3.1,0l0-3.1l-3.1,0L161.1,341.9z"/>
		<path fill="#EF563F" d="M164.4,297.9l0,4.5l-37.7,0.3l0-4.5l12.5-8.2l0-3.1c-0.8,0-1.5-0.8-2.2-2.3c-0.7-1.6-1-2.9-1-3.9l0-6.3
			c0-2.6,0.9-4.8,2.7-6.7c1.8-1.9,4-2.8,6.6-2.8c2.6,0,4.8,0.9,6.7,2.7c1.9,1.8,2.8,4,2.8,6.6l0,6.3c0,1.1-0.3,2.4-1,4
			c-0.6,1.6-1.4,2.3-2.1,2.4l0,3.1L164.4,297.9z"/>
		<path fill="#EF563F" d="M74.4,275.1c-0.4,0.4-0.8,0.6-1.4,0.6l-23.3,0.2c-0.5,0-1-0.2-1.4-0.6c-0.4-0.4-0.6-0.8-0.6-1.4l0-3.9
			c0-0.5,0.2-1,0.5-1.4c0.4-0.4,0.8-0.6,1.4-0.6l23.3-0.2c0.5,0,1,0.2,1.4,0.6c0.4,0.4,0.6,0.8,0.6,1.4l0,3.9
			C75,274.2,74.8,274.7,74.4,275.1z M90,286.6c-0.4,0.4-0.8,0.6-1.4,0.6l-38.8,0.3c-0.5,0-1-0.2-1.4-0.6c-0.4-0.4-0.6-0.8-0.6-1.3
			l0-3.9c0-0.5,0.2-1,0.5-1.4c0.4-0.4,0.8-0.6,1.4-0.6l38.8-0.3c0.5,0,1,0.2,1.4,0.6c0.4,0.4,0.6,0.8,0.6,1.4l0,3.9
			C90.6,285.8,90.4,286.2,90,286.6z M82.4,298.3c-0.4,0.4-0.8,0.6-1.4,0.6l-31,0.2c-0.6,0-1-0.2-1.4-0.6c-0.4-0.4-0.6-0.8-0.6-1.4
			l0-3.9c0-0.5,0.2-1,0.6-1.4c0.4-0.4,0.8-0.6,1.4-0.6l31-0.2c0.5,0,1,0.2,1.4,0.5c0.4,0.4,0.6,0.8,0.6,1.4l0,3.9
			C82.9,297.5,82.7,297.9,82.4,298.3z"/>
	</g>
	<g>
		<g>
			<path fill="#FFFFFF" d="M37.1,410.1l-0.2-28.2c0-2.6,0.5-4.9,1.6-6.7c1.1-1.8,2.5-2.7,4.1-2.7l127.3-1c1.6,0,3,0.9,4.1,2.7
				c1.1,1.8,1.7,4,1.7,6.7l0.2,28.2L37.1,410.1z M175.9,406.1l0.5,63.7c0,1.6-0.5,3-1.6,4.1c-1.1,1.1-2.5,1.7-4.1,1.7l-127.3,1
				c-1.6,0-3-0.5-4.1-1.7c-1.1-1.1-1.7-2.5-1.7-4.1l-0.5-63.6L175.9,406.1z M49.1,465l46.3-0.4l-0.2-23.1l-46.3,0.4L49.1,465z"/>
			
				<rect x="42.9" y="438.3" transform="matrix(1 -7.753196e-03 7.753196e-03 1 -3.5249 0.6025)" fill="#FFFFFF" width="66.1" height="33.3"/>
		</g>
		<path fill="#EF563F" d="M131.9,447.4l-3.1,0l-0.1-18.5l15.4-0.1l0.1,9.2l3.1,0l0,3.1l-3.1,0l0,3.1l-12.3,0.1L131.9,447.4z
			 M138.1,450.4l6.2,0l0.1,15.4l-15.4,0.1l-0.1-15.4l6.2-0.1l0-3.1l3.1,0L138.1,450.4z M131.8,441.2l9.3-0.1l-0.1-9.3l-9.3,0.1
			L131.8,441.2z M131.9,453.5l0.1,9.3l9.3-0.1l-0.1-9.3L131.9,453.5z M134.9,435l3.1,0l0,3.1l-3.1,0L134.9,435z M138.1,456.6l-3.1,0
			l0,3.1l3.1,0L138.1,456.6z M159.7,459.5l0-3.1l-6.2,0l-0.1-9.3l-9.2,0.1l0,3.1l6.2-0.1l0,6.2l-3.1,0l0,3.1l3.1,0l0,3.1l6.2,0
			l0-3.1L159.7,459.5z M159.6,444.1l0,3.1l6.2,0l0,6.2l-9.3,0.1l-0.1-9.3l-6.2,0l-0.1-9.3l-3.1,0l-0.1-6.2l18.5-0.1l0.1,15.4
			L159.6,444.1z M147.4,465.7l3.1,0l0-3.1l-3.1,0L147.4,465.7z M162.6,441l-0.1-9.2l-9.3,0.1l0.1,9.3L162.6,441z M156.5,437.9l3.1,0
			l0-3.1l-3.1,0L156.5,437.9z M156.6,462.6l0,3.1l9.2-0.1l0-3.1L156.6,462.6z M162.8,459.5l3.1,0l0-3.1l-3.1,0L162.8,459.5z"/>
		<path fill="#EF563F" d="M166.1,415.5l0,4.5l-37.7,0.3l0-4.5l12.5-8.2l0-3.1c-0.8,0-1.5-0.8-2.2-2.3c-0.7-1.6-1-2.9-1-3.9l-0.1-6.3
			c0-2.6,0.9-4.8,2.7-6.7c1.8-1.9,4-2.8,6.6-2.8c2.6,0,4.8,0.9,6.7,2.7c1.9,1.8,2.8,4,2.8,6.6l0,6.3c0,1.1-0.3,2.4-1,4
			c-0.6,1.6-1.4,2.4-2.1,2.4l0,3.1L166.1,415.5z"/>
		<path fill="#EF563F" d="M76.2,392.6c-0.4,0.4-0.8,0.6-1.4,0.6l-23.3,0.2c-0.5,0-1-0.2-1.4-0.6c-0.4-0.4-0.6-0.8-0.6-1.3l0-3.9
			c0-0.5,0.2-1,0.6-1.4c0.4-0.4,0.8-0.6,1.4-0.6l23.3-0.2c0.5,0,1,0.2,1.4,0.6c0.4,0.4,0.6,0.8,0.6,1.4l0,3.9
			C76.7,391.8,76.5,392.2,76.2,392.6z M91.8,404.1c-0.4,0.4-0.8,0.6-1.4,0.6L51.6,405c-0.5,0-1-0.2-1.4-0.6
			c-0.4-0.4-0.6-0.8-0.6-1.4l0-3.9c0-0.5,0.2-1,0.6-1.4c0.4-0.4,0.8-0.6,1.4-0.6l38.8-0.3c0.5,0,1,0.2,1.4,0.6
			c0.4,0.4,0.6,0.8,0.6,1.4l0,3.9C92.3,403.3,92.1,403.7,91.8,404.1z M84.1,415.8c-0.4,0.4-0.8,0.6-1.4,0.6l-31,0.2
			c-0.5,0-1-0.2-1.4-0.6c-0.4-0.4-0.6-0.8-0.6-1.4l0-3.9c0-0.5,0.2-1,0.5-1.4c0.4-0.4,0.8-0.6,1.4-0.6l31-0.2c0.5,0,1,0.2,1.4,0.5
			c0.4,0.4,0.6,0.8,0.6,1.4l0,3.9C84.7,415,84.5,415.4,84.1,415.8z"/>
	</g>
	<g>
		<g>
			<path fill="#FFFFFF" d="M206.1,291.9l-0.2-28.2c0-2.6,0.5-4.9,1.6-6.7c1.1-1.8,2.5-2.7,4.1-2.7l127.3-1c1.6,0,3,0.9,4.1,2.7
				c1.1,1.8,1.7,4,1.7,6.7l0.2,28.2L206.1,291.9z M345,288l0.5,63.7c0,1.6-0.5,3-1.6,4.1c-1.1,1.1-2.5,1.7-4.1,1.7l-127.3,1
				c-1.6,0-3-0.5-4.1-1.6c-1.1-1.1-1.7-2.5-1.7-4.1l-0.5-63.6L345,288z M218.1,346.8l46.3-0.4l-0.2-23.1l-46.3,0.4L218.1,346.8z"/>
			
				<rect x="212" y="320.2" transform="matrix(1 -7.777663e-03 7.777663e-03 1 -2.612 1.9157)" fill="#FFFFFF" width="66.1" height="33.3"/>
		</g>
		<path fill="#EF563F" d="M300.9,329.2l-3.1,0l-0.1-18.5l15.4-0.1l0.1,9.2l3.1,0l0,3.1l-3.1,0l0,3.1l-12.3,0.1L300.9,329.2z
			 M307.1,332.2l6.2,0l0.1,15.4l-15.4,0.1l-0.1-15.4l6.2-0.1l0-3.1l3.1,0L307.1,332.2z M300.9,323l9.3-0.1l-0.1-9.2l-9.3,0.1
			L300.9,323z M301,335.4l0.1,9.3l9.3-0.1l-0.1-9.3L301,335.4z M303.9,316.9l3.1,0l0,3.1l-3.1,0L303.9,316.9z M307.1,338.4l-3.1,0
			l0,3.1l3.1,0L307.1,338.4z M328.8,341.3l0-3.1l-6.2,0l-0.1-9.3l-9.3,0.1l0,3.1l6.2,0l0,6.2l-3.1,0l0,3.1l3.1,0l0,3.1l6.2,0l0-3.1
			L328.8,341.3z M328.6,325.9l0,3.1l6.2,0l0,6.2l-9.3,0.1l-0.1-9.3l-6.2,0l-0.1-9.2l-3.1,0l-0.1-6.2l18.5-0.1l0.1,15.4L328.6,325.9z
			 M316.5,347.6l3.1,0l0-3.1l-3.1,0L316.5,347.6z M331.7,322.8l-0.1-9.2l-9.3,0.1l0.1,9.3L331.7,322.8z M325.5,319.8l3.1,0l0-3.1
			l-3.1,0L325.5,319.8z M325.7,344.4l0,3.1l9.2-0.1l0-3.1L325.7,344.4z M331.8,341.3l3.1,0l0-3.1l-3.1,0L331.8,341.3z"/>
		<path fill="#EF563F" d="M335.2,297.3l0,4.5l-37.7,0.3l0-4.5l12.5-8.2l0-3.1c-0.8,0-1.5-0.8-2.2-2.3c-0.7-1.6-1-2.9-1-3.9l0-6.3
			c0-2.6,0.9-4.8,2.7-6.7c1.8-1.9,4-2.8,6.6-2.8c2.6,0,4.8,0.9,6.7,2.7c1.9,1.8,2.8,4,2.8,6.6l0,6.3c0,1.1-0.3,2.4-1,4
			c-0.6,1.6-1.4,2.3-2.1,2.4l0,3.1L335.2,297.3z"/>
		<path fill="#EF563F" d="M245.2,274.5c-0.4,0.4-0.8,0.6-1.4,0.6l-23.3,0.2c-0.6,0-1-0.2-1.4-0.6c-0.4-0.4-0.6-0.8-0.6-1.4l0-3.9
			c0-0.5,0.2-1,0.5-1.4c0.4-0.4,0.8-0.6,1.4-0.6l23.3-0.2c0.5,0,1,0.2,1.4,0.6c0.4,0.4,0.6,0.8,0.6,1.4l0,3.9
			C245.8,273.6,245.6,274.1,245.2,274.5z M260.8,286c-0.4,0.4-0.8,0.6-1.4,0.6l-38.8,0.3c-0.5,0-1-0.2-1.4-0.6
			c-0.4-0.4-0.6-0.8-0.6-1.3l0-3.9c0-0.5,0.2-1,0.5-1.4c0.4-0.4,0.8-0.6,1.4-0.6l38.8-0.3c0.5,0,1,0.2,1.4,0.6
			c0.4,0.4,0.6,0.8,0.6,1.4l0,3.9C261.4,285.1,261.2,285.6,260.8,286z M253.1,297.7c-0.4,0.4-0.8,0.6-1.4,0.6l-31,0.2
			c-0.6,0-1-0.2-1.4-0.6c-0.4-0.4-0.6-0.8-0.6-1.4l0-3.9c0-0.5,0.2-1,0.5-1.4c0.4-0.4,0.8-0.6,1.4-0.6l31-0.2c0.5,0,1,0.2,1.4,0.5
			c0.4,0.4,0.6,0.8,0.6,1.4l0,3.9C253.7,296.8,253.5,297.3,253.1,297.7z"/>
	</g>
	<g>
		<g>
			<path fill="#FFFFFF" d="M207.9,409.5l-0.2-28.2c0-2.6,0.5-4.9,1.6-6.7c1.1-1.8,2.5-2.7,4.1-2.7l127.3-1c1.6,0,3,0.9,4.1,2.7
				c1.1,1.8,1.7,4,1.7,6.7l0.2,28.2L207.9,409.5z M346.7,405.5l0.5,63.7c0,1.6-0.5,3-1.6,4.1c-1.1,1.1-2.5,1.7-4.1,1.7l-127.3,1
				c-1.6,0-3-0.5-4.1-1.7c-1.1-1.1-1.7-2.5-1.7-4.1l-0.5-63.6L346.7,405.5z M219.8,464.3l46.3-0.4l-0.2-23.1l-46.3,0.4L219.8,464.3z
				"/>
			<polygon fill="#FFFFFF" points="279.9,470.7 213.8,471.2 213.6,437.9 279.6,437.4 			"/>
		</g>
		<path fill="#EF563F" d="M302.6,446.7l-3.1,0l-0.1-18.5l15.4-0.1l0.1,9.2l3.1,0l0,3.1l-3.1,0l0,3.1l-12.3,0.1L302.6,446.7z
			 M308.8,449.8l6.2,0l0.1,15.4l-15.4,0.1l-0.1-15.4l6.2-0.1l0-3.1l3.1,0L308.8,449.8z M302.6,440.6l9.3-0.1l-0.1-9.3l-9.3,0.1
			L302.6,440.6z M302.7,452.9l0.1,9.3l9.3-0.1l-0.1-9.3L302.7,452.9z M305.6,434.4l3.1,0l0,3.1l-3.1,0L305.6,434.4z M308.9,455.9
			l-3.1,0l0,3.1l3.1,0L308.9,455.9z M330.5,458.8l0-3.1l-6.2,0l-0.1-9.3l-9.2,0.1l0,3.1l6.2,0l0.1,6.2l-3.1,0l0,3.1l3.1,0l0,3.1
			l6.2-0.1l0-3.1L330.5,458.8z M330.4,443.4l0,3.1l6.2,0l0.1,6.2l-9.3,0.1l-0.1-9.3l-6.2,0.1l-0.1-9.3l-3.1,0l0-6.2l18.5-0.1
			l0.1,15.4L330.4,443.4z M318.2,465.1l3.1,0l0-3.1l-3.1,0L318.2,465.1z M333.4,440.3l-0.1-9.2l-9.3,0.1l0.1,9.3L333.4,440.3z
			 M327.2,437.3l3.1,0l0-3.1l-3.1,0L327.2,437.3z M327.4,461.9l0,3.1l9.2-0.1l0-3.1L327.4,461.9z M333.6,458.8l3.1,0l0-3.1l-3.1,0
			L333.6,458.8z"/>
		<path fill="#EF563F" d="M336.9,414.8l0,4.5l-37.7,0.3l0-4.5l12.5-8.2l0-3.1c-0.8,0-1.5-0.8-2.2-2.3c-0.7-1.6-1-2.9-1-3.9l-0.1-6.3
			c0-2.6,0.9-4.8,2.7-6.7c1.8-1.9,4-2.8,6.6-2.8c2.6,0,4.8,0.9,6.7,2.7c1.9,1.8,2.8,4,2.8,6.6l0,6.3c0,1.1-0.3,2.4-1,4
			c-0.6,1.6-1.4,2.4-2.1,2.4l0,3.1L336.9,414.8z"/>
		<path fill="#EF563F" d="M246.9,392c-0.4,0.4-0.8,0.6-1.4,0.6l-23.3,0.2c-0.5,0-1-0.2-1.4-0.6c-0.4-0.4-0.6-0.8-0.6-1.4l0-3.9
			c0-0.5,0.2-1,0.6-1.4c0.4-0.4,0.8-0.6,1.4-0.6l23.3-0.2c0.5,0,1,0.2,1.4,0.5c0.4,0.4,0.6,0.8,0.6,1.4l0,3.9
			C247.5,391.1,247.3,391.6,246.9,392z M262.5,403.5c-0.4,0.4-0.8,0.6-1.4,0.6l-38.8,0.3c-0.5,0-1-0.2-1.4-0.6
			c-0.4-0.4-0.6-0.8-0.6-1.3l0-3.9c0-0.5,0.2-1,0.5-1.4c0.4-0.4,0.8-0.6,1.4-0.6l38.8-0.3c0.5,0,1,0.2,1.4,0.6
			c0.4,0.4,0.6,0.8,0.6,1.4l0,3.9C263.1,402.6,262.9,403.1,262.5,403.5z M254.9,415.2c-0.4,0.4-0.8,0.6-1.4,0.6l-31,0.2
			c-0.5,0-1-0.2-1.4-0.6c-0.4-0.4-0.6-0.8-0.6-1.4l0-3.9c0-0.5,0.2-1,0.6-1.4c0.4-0.4,0.8-0.6,1.4-0.6l31-0.2c0.5,0,1,0.2,1.4,0.6
			c0.4,0.4,0.6,0.8,0.6,1.4l0,3.9C255.4,414.3,255.2,414.8,254.9,415.2z"/>
	</g>
</g>
</svg>
