<?xml version="1.0" encoding="utf-8"?>
<!-- Generator: Adobe Illustrator 16.0.0, SVG Export Plug-In . SVG Version: 6.00 Build 0)  -->
<!DOCTYPE svg PUBLIC "-//W3C//DTD SVG 1.1//EN" "http://www.w3.org/Graphics/SVG/1.1/DTD/svg11.dtd">
<svg version="1.1" id="Layer_1" xmlns="http://www.w3.org/2000/svg" xmlns:xlink="http://www.w3.org/1999/xlink" x="0px" y="0px"
	 width="375.5px" height="500px" viewBox="0 0 375.5 500" style="enable-background:new 0 0 375.5 500;" xml:space="preserve">
<style type="text/css">
<![CDATA[
	.st0{fill:#EF563F;}
	.st1{fill:#FFFFFF;}
	.st2{fill:#CACACA;}
]]>
</style>
<g>
	<path class="st2" d="M208.4,208.3l165.5,0.1l-0.1,279.3c0,3-1,5.5-2.9,7.4c-1.9,1.9-4.4,2.9-7.5,2.9l-351.7-0.1c-3,0-5.5-1-7.5-2.9
		c-1.9-1.9-2.9-4.4-2.9-7.4L1.5,11.6c0-3,1-5.5,2.9-7.4c1.9-1.9,4.4-2.9,7.4-2.9l196.5,0.1L208.4,208.3z M373.6,166.4l-124.1,0.5
		l-0.5-124.2L373.6,166.4z"/>
	<g>
		<g>
			<path class="st1" d="M29.4,55.4l0-28.2c0-2.6,0.5-4.9,1.7-6.7c1.1-1.8,2.5-2.7,4.1-2.7l127.3,0c1.6,0,3,0.9,4.1,2.7
				c1.1,1.8,1.7,4.1,1.6,6.7l0,28.2L29.4,55.4z M168.2,52.4l0,63.6c0,1.6-0.5,3-1.6,4.1c-1.1,1.1-2.5,1.7-4.1,1.7l-127.3,0
				c-1.6,0-3-0.5-4.1-1.7c-1.1-1.1-1.7-2.5-1.7-4.1l0-63.5L168.2,52.4z M41,110.3l46.3,0l0-23.1l-46.3,0L41,110.3z"/>
			<rect x="34.9" y="83.9" class="st1" width="66.1" height="33.3"/>
		</g>
		<path class="st0" d="M124.1,93.1H121l-0.1-18.5l15.4-0.1l0.1,9.2h3.1v3.1h-3.1v3.1L124.1,90V93.1z M130.3,96.2h6.2l0.1,15.4
			l-15.4,0.1L121,96.2h6.2v-3.1h3.1V96.2z M124,87l9.3-0.1l-0.1-9.2l-9.3,0.1L124,87z M124.1,99.3l0.1,9.2l9.3-0.1l-0.1-9.2
			L124.1,99.3z M127.1,80.8h3.1v3.1h-3.1V80.8z M130.3,102.3h-3.1v3.1h3.1V102.3z M151.9,105.2v-3.1h-6.2l-0.1-9.3l-9.3,0.1V96h6.2
			v6.2h-3.1v3.1h3.1v3.1h6.2v-3.1L151.9,105.2z M151.8,89.8v3.1h6.2v6.2l-9.3,0.1l-0.1-9.3l-6.2,0.1l-0.1-9.3h-3.1v-6.2l18.5-0.1
			l0.1,15.4H151.8z M139.6,111.5h3.1v-3.1h-3.1V111.5z M154.9,86.7l-0.1-9.2l-9.3,0.1l0.1,9.3L154.9,86.7z M148.7,83.7h3.1v-3.1
			h-3.1V83.7z M148.9,108.4v3.1l9.2-0.1v-3.1L148.9,108.4z M155,105.2h3.1v-3.1H155V105.2z"/>
		<path class="st0" d="M158.4,61.2v4.5L120.7,66v-4.5l12.5-8.2v-3.1c-0.8,0-1.5-0.8-2.2-2.3c-0.7-1.6-1-2.9-1-3.9v-6.3
			c0-2.6,0.9-4.8,2.7-6.7c1.8-1.9,4-2.8,6.6-2.8s4.8,0.9,6.7,2.7c1.9,1.8,2.8,4,2.8,6.6l0.1,6.3c0,1.1-0.3,2.4-1,4
			c-0.6,1.6-1.4,2.3-2.1,2.4v3.1L158.4,61.2z"/>
		<path class="st0" d="M68.4,38.4C68,38.8,67.5,39,67,39l-23.3,0.2c-0.5,0-1-0.2-1.4-0.6s-0.6-0.8-0.6-1.4v-3.9c0-0.5,0.2-1,0.5-1.4
			c0.4-0.4,0.8-0.6,1.4-0.6l23.3-0.2c0.5,0,1,0.2,1.4,0.6c0.4,0.4,0.6,0.8,0.6,1.4V37C68.9,37.5,68.7,38,68.4,38.4z M84,49.9
			c-0.4,0.4-0.8,0.6-1.4,0.6l-38.8,0.3c-0.5,0-1-0.2-1.4-0.6c-0.4-0.4-0.6-0.8-0.6-1.3V45c0-0.5,0.2-1,0.5-1.4
			c0.4-0.4,0.8-0.6,1.4-0.6l38.8-0.3c0.5,0,1,0.2,1.4,0.6c0.4,0.4,0.6,0.8,0.6,1.4v3.9C84.5,49,84.4,49.5,84,49.9z M76.3,61.6
			c-0.4,0.4-0.8,0.6-1.4,0.6l-31,0.2c-0.6,0-1-0.2-1.4-0.6C42.1,61.5,42,61,42,60.5v-3.9c0-0.5,0.2-1,0.5-1.4
			c0.4-0.4,0.8-0.6,1.4-0.6l31-0.2c0.5,0,1,0.2,1.4,0.6s0.6,0.8,0.6,1.4v3.9C76.9,60.7,76.7,61.2,76.3,61.6z"/>
	</g>
	<g>
		<g>
			<path class="st1" d="M29.4,175.4l0-28.2c0-2.6,0.5-4.9,1.7-6.7c1.1-1.8,2.5-2.7,4.1-2.7l127.3,0c1.6,0,3,0.9,4.1,2.7
				c1.1,1.8,1.7,4.1,1.6,6.7l0,28.2L29.4,175.4z M168.2,172.4l0,63.6c0,1.6-0.5,3-1.6,4.1c-1.1,1.1-2.5,1.7-4.1,1.7l-127.3,0
				c-1.6,0-3-0.5-4.1-1.7c-1.1-1.1-1.7-2.5-1.7-4.1l0-63.5L168.2,172.4z M41,230.3l46.3,0l0-23.1l-46.3,0L41,230.3z"/>
			<rect x="34.9" y="203.9" class="st1" width="66.1" height="33.3"/>
		</g>
		<path class="st0" d="M124.1,213.1H121l-0.1-18.5l15.4-0.1l0.1,9.2h3.1v3.1h-3.1v3.1l-12.3,0.1V213.1z M130.3,216.2h6.2l0.1,15.4
			l-15.4,0.1l-0.2-15.5h6.2v-3.1h3.1V216.2z M124,207l9.3-0.1l-0.1-9.2l-9.3,0.1L124,207z M124.1,219.3l0.1,9.2l9.3-0.1l-0.1-9.2
			L124.1,219.3z M127.1,200.8h3.1v3.1h-3.1V200.8z M130.3,222.3h-3.1v3.1h3.1V222.3z M151.9,225.2v-3.1h-6.2l-0.1-9.3l-9.3,0.1v3.1
			h6.2v6.2h-3.1v3.1h3.1v3.1h6.2v-3.1L151.9,225.2z M151.8,209.8v3.1h6.2v6.2l-9.3,0.1l-0.1-9.3l-6.2,0.1l-0.1-9.3h-3.1v-6.2
			l18.5-0.1l0.1,15.4H151.8z M139.6,231.5h3.1v-3.1h-3.1V231.5z M154.9,206.7l-0.1-9.2l-9.3,0.1l0.1,9.3L154.9,206.7z M148.7,203.7
			h3.1v-3.1h-3.1V203.7z M148.9,228.4v3.1l9.2-0.1v-3.1L148.9,228.4z M155,225.2h3.1v-3.1H155V225.2z"/>
		<path class="st0" d="M158.4,181.2v4.5l-37.7,0.3v-4.5l12.5-8.2v-3.1c-0.8,0-1.5-0.8-2.2-2.3c-0.7-1.6-1-2.9-1-3.9v-6.3
			c0-2.6,0.9-4.8,2.7-6.7c1.8-1.9,4-2.8,6.6-2.8s4.8,0.9,6.7,2.7c1.9,1.8,2.8,4,2.8,6.6l0.1,6.3c0,1.1-0.3,2.4-1,4
			c-0.6,1.6-1.4,2.3-2.1,2.4v3.1L158.4,181.2z"/>
		<path class="st0" d="M68.4,158.4c-0.4,0.4-0.9,0.6-1.4,0.6l-23.3,0.2c-0.5,0-1-0.2-1.4-0.6s-0.6-0.8-0.6-1.4v-3.9
			c0-0.5,0.2-1,0.5-1.4c0.4-0.4,0.8-0.6,1.4-0.6l23.3-0.2c0.5,0,1,0.2,1.4,0.6c0.4,0.4,0.6,0.8,0.6,1.4v3.9
			C68.9,157.5,68.7,158,68.4,158.4z M84,169.9c-0.4,0.4-0.8,0.6-1.4,0.6l-38.8,0.3c-0.5,0-1-0.2-1.4-0.6c-0.4-0.4-0.6-0.8-0.6-1.3
			V165c0-0.5,0.2-1,0.5-1.4c0.4-0.4,0.8-0.6,1.4-0.6l38.8-0.3c0.5,0,1,0.2,1.4,0.6c0.4,0.4,0.6,0.8,0.6,1.4v3.9
			C84.5,169,84.4,169.5,84,169.9z M76.3,181.6c-0.4,0.4-0.8,0.6-1.4,0.6l-31,0.2c-0.6,0-1-0.2-1.4-0.6c-0.4-0.3-0.5-0.8-0.5-1.3
			v-3.9c0-0.5,0.2-1,0.5-1.4c0.4-0.4,0.8-0.6,1.4-0.6l31-0.2c0.5,0,1,0.2,1.4,0.6s0.6,0.8,0.6,1.4v3.9
			C76.9,180.7,76.7,181.2,76.3,181.6z"/>
	</g>
	<g>
		<g>
			<path class="st1" d="M29.4,295.4l0-28.2c0-2.6,0.5-4.9,1.7-6.7c1.1-1.8,2.5-2.7,4.1-2.7l127.3,0c1.6,0,3,0.9,4.1,2.7
				c1.1,1.8,1.7,4.1,1.6,6.7l0,28.2L29.4,295.4z M168.2,292.4l0,63.6c0,1.6-0.5,3-1.6,4.1c-1.1,1.1-2.5,1.7-4.1,1.7l-127.3,0
				c-1.6,0-3-0.5-4.1-1.7c-1.1-1.1-1.7-2.5-1.7-4.1l0-63.5L168.2,292.4z M41,350.3l46.3,0l0-23.1l-46.3,0L41,350.3z"/>
			<rect x="34.9" y="323.9" class="st1" width="66.1" height="33.3"/>
		</g>
		<path class="st0" d="M124.1,333.1H121l-0.1-18.5l15.4-0.1l0.1,9.2h3.1v3.1h-3.1v3.1l-12.3,0.1V333.1z M130.3,336.2h6.2l0.1,15.4
			l-15.4,0.1l-0.2-15.5h6.2v-3.1h3.1V336.2z M124,327l9.3-0.1l-0.1-9.2l-9.3,0.1L124,327z M124.1,339.3l0.1,9.2l9.3-0.1l-0.1-9.2
			L124.1,339.3z M127.1,320.8h3.1v3.1h-3.1V320.8z M130.3,342.3h-3.1v3.1h3.1V342.3z M151.9,345.2v-3.1h-6.2l-0.1-9.3l-9.3,0.1v3.1
			h6.2v6.2h-3.1v3.1h3.1v3.1h6.2v-3.1L151.9,345.2z M151.8,329.8v3.1h6.2v6.2l-9.3,0.1l-0.1-9.3l-6.2,0.1l-0.1-9.3h-3.1v-6.2
			l18.5-0.1l0.1,15.4H151.8z M139.6,351.5h3.1v-3.1h-3.1V351.5z M154.9,326.7l-0.1-9.2l-9.3,0.1l0.1,9.3L154.9,326.7z M148.7,323.7
			h3.1v-3.1h-3.1V323.7z M148.9,348.4v3.1l9.2-0.1v-3.1L148.9,348.4z M155,345.2h3.1v-3.1H155V345.2z"/>
		<path class="st0" d="M158.4,301.2v4.5l-37.7,0.3v-4.5l12.5-8.2v-3.1c-0.8,0-1.5-0.8-2.2-2.3c-0.7-1.6-1-2.9-1-3.9v-6.3
			c0-2.6,0.9-4.8,2.7-6.7c1.8-1.9,4-2.8,6.6-2.8s4.8,0.9,6.7,2.7c1.9,1.8,2.8,4,2.8,6.6l0.1,6.3c0,1.1-0.3,2.4-1,4
			c-0.6,1.6-1.4,2.3-2.1,2.4v3.1L158.4,301.2z"/>
		<path class="st0" d="M68.4,278.4c-0.4,0.4-0.9,0.6-1.4,0.6l-23.3,0.2c-0.5,0-1-0.2-1.4-0.6c-0.4-0.4-0.6-0.8-0.6-1.4v-3.9
			c0-0.5,0.2-1,0.5-1.4c0.4-0.4,0.8-0.6,1.4-0.6l23.3-0.2c0.5,0,1,0.2,1.4,0.6c0.4,0.4,0.6,0.8,0.6,1.4v3.9
			C68.9,277.5,68.7,278,68.4,278.4z M84,289.9c-0.4,0.4-0.8,0.6-1.4,0.6l-38.8,0.3c-0.5,0-1-0.2-1.4-0.6c-0.4-0.4-0.6-0.8-0.6-1.3
			V285c0-0.5,0.2-1,0.5-1.4c0.4-0.4,0.8-0.6,1.4-0.6l38.8-0.3c0.5,0,1,0.2,1.4,0.6c0.4,0.4,0.6,0.8,0.6,1.4v3.9
			C84.5,289,84.4,289.5,84,289.9z M76.3,301.6c-0.4,0.4-0.8,0.6-1.4,0.6l-31,0.2c-0.6,0-1-0.2-1.4-0.6c-0.4-0.3-0.5-0.8-0.5-1.3
			v-3.9c0-0.5,0.2-1,0.5-1.4c0.4-0.4,0.8-0.6,1.4-0.6l31-0.2c0.5,0,1,0.2,1.4,0.6s0.6,0.8,0.6,1.4v3.9
			C76.9,300.7,76.7,301.2,76.3,301.6z"/>
	</g>
	<g>
		<g>
			<path class="st1" d="M29.4,415.4l0-28.2c0-2.6,0.5-4.9,1.7-6.7c1.1-1.8,2.5-2.7,4.1-2.7l127.3,0c1.6,0,3,0.9,4.1,2.7
				c1.1,1.8,1.7,4.1,1.6,6.7l0,28.2L29.4,415.4z M168.2,412.4l0,63.6c0,1.6-0.5,3-1.6,4.1s-2.5,1.7-4.1,1.7l-127.3,0
				c-1.6,0-3-0.5-4.1-1.7c-1.1-1.1-1.7-2.5-1.7-4.1l0-63.5L168.2,412.4z M41,470.3l46.3,0l0-23.1l-46.3,0L41,470.3z"/>
			<rect x="34.9" y="443.9" class="st1" width="66.1" height="33.3"/>
		</g>
		<path class="st0" d="M124.1,453.1H121l-0.1-18.5l15.4-0.1l0.1,9.2h3.1v3.1h-3.1v3.1l-12.3,0.1V453.1z M130.3,456.2h6.2l0.1,15.4
			l-15.4,0.1l-0.2-15.5h6.2v-3.1h3.1V456.2z M124,447l9.3-0.1l-0.1-9.2l-9.3,0.1L124,447z M124.1,459.3l0.1,9.2l9.3-0.1l-0.1-9.2
			L124.1,459.3z M127.1,440.8h3.1v3.1h-3.1V440.8z M130.3,462.3h-3.1v3.1h3.1V462.3z M151.9,465.2v-3.1h-6.2l-0.1-9.3l-9.3,0.1v3.1
			h6.2v6.2h-3.1v3.1h3.1v3.1h6.2v-3.1L151.9,465.2z M151.8,449.8v3.1h6.2v6.2l-9.3,0.1l-0.1-9.3l-6.2,0.1l-0.1-9.3h-3.1v-6.2
			l18.5-0.1l0.1,15.4H151.8z M139.6,471.5h3.1v-3.1h-3.1V471.5z M154.9,446.7l-0.1-9.2l-9.3,0.1l0.1,9.3L154.9,446.7z M148.7,443.7
			h3.1v-3.1h-3.1V443.7z M148.9,468.4v3.1l9.2-0.1v-3.1L148.9,468.4z M155,465.2h3.1v-3.1H155V465.2z"/>
		<path class="st0" d="M158.4,421.2v4.5l-37.7,0.3v-4.5l12.5-8.2v-3.1c-0.8,0-1.5-0.8-2.2-2.3c-0.7-1.6-1-2.9-1-3.9v-6.3
			c0-2.6,0.9-4.8,2.7-6.7c1.8-1.9,4-2.8,6.6-2.8s4.8,0.9,6.7,2.7c1.9,1.8,2.8,4,2.8,6.6l0.1,6.3c0,1.1-0.3,2.4-1,4
			c-0.6,1.6-1.4,2.3-2.1,2.4v3.1L158.4,421.2z"/>
		<path class="st0" d="M68.4,398.4c-0.4,0.4-0.9,0.6-1.4,0.6l-23.3,0.2c-0.5,0-1-0.2-1.4-0.6c-0.4-0.4-0.6-0.8-0.6-1.4v-3.9
			c0-0.5,0.2-1,0.5-1.4c0.4-0.4,0.8-0.6,1.4-0.6l23.3-0.2c0.5,0,1,0.2,1.4,0.6c0.4,0.4,0.6,0.8,0.6,1.4v3.9
			C68.9,397.5,68.7,398,68.4,398.4z M84,409.9c-0.4,0.4-0.8,0.6-1.4,0.6l-38.8,0.3c-0.5,0-1-0.2-1.4-0.6c-0.4-0.4-0.6-0.8-0.6-1.3
			V405c0-0.5,0.2-1,0.5-1.4c0.4-0.4,0.8-0.6,1.4-0.6l38.8-0.3c0.5,0,1,0.2,1.4,0.6c0.4,0.4,0.6,0.8,0.6,1.4v3.9
			C84.5,409,84.4,409.5,84,409.9z M76.3,421.6c-0.4,0.4-0.8,0.6-1.4,0.6l-31,0.2c-0.6,0-1-0.2-1.4-0.6c-0.4-0.3-0.5-0.8-0.5-1.3
			v-3.9c0-0.5,0.2-1,0.5-1.4c0.4-0.4,0.8-0.6,1.4-0.6l31-0.2c0.5,0,1,0.2,1.4,0.6s0.6,0.8,0.6,1.4v3.9
			C76.9,420.7,76.7,421.2,76.3,421.6z"/>
	</g>
	<g>
		<g>
			<path class="st1" d="M207.4,295.4l0-28.2c0-2.6,0.5-4.9,1.7-6.7c1.1-1.8,2.5-2.7,4.1-2.7l127.3,0c1.6,0,3,0.9,4.1,2.7
				c1.1,1.8,1.7,4.1,1.6,6.7l0,28.2L207.4,295.4z M346.2,292.4l0,63.6c0,1.6-0.5,3-1.6,4.1c-1.1,1.1-2.5,1.7-4.1,1.7l-127.3,0
				c-1.6,0-3-0.5-4.1-1.7c-1.1-1.1-1.7-2.5-1.7-4.1l0-63.5L346.2,292.4z M219,350.3l46.3,0l0-23.1l-46.3,0L219,350.3z"/>
			<rect x="212.8" y="323.9" class="st1" width="66.1" height="33.3"/>
		</g>
		<path class="st0" d="M302.1,333.1H299l-0.1-18.5l15.4-0.1l0.1,9.2h3.1v3.1h-3.1v3.1l-12.3,0.1V333.1z M308.3,336.2h6.2l0.1,15.4
			l-15.4,0.1l-0.2-15.5h6.2v-3.1h3.1V336.2z M302,327l9.3-0.1l-0.1-9.2l-9.3,0.1L302,327z M302.1,339.3l0.1,9.2l9.3-0.1l-0.1-9.2
			L302.1,339.3z M305.1,320.8h3.1v3.1h-3.1V320.8z M308.3,342.3h-3.1v3.1h3.1V342.3z M329.9,345.2v-3.1h-6.2l-0.1-9.3l-9.3,0.1v3.1
			h6.2v6.2h-3.1v3.1h3.1v3.1h6.2v-3.1L329.9,345.2z M329.8,329.8v3.1h6.2v6.2l-9.3,0.1l-0.1-9.3l-6.2,0.1l-0.1-9.3h-3.1v-6.2
			l18.5-0.1l0.1,15.4H329.8z M317.6,351.5h3.1v-3.1h-3.1V351.5z M332.9,326.7l-0.1-9.2l-9.3,0.1l0.1,9.3L332.9,326.7z M326.7,323.7
			h3.1v-3.1h-3.1V323.7z M326.9,348.4v3.1l9.2-0.1v-3.1L326.9,348.4z M333,345.2h3.1v-3.1H333V345.2z"/>
		<path class="st0" d="M336.4,301.2v4.5l-37.7,0.3v-4.5l12.5-8.2v-3.1c-0.8,0-1.5-0.8-2.2-2.3c-0.7-1.6-1-2.9-1-3.9v-6.3
			c0-2.6,0.9-4.8,2.7-6.7c1.8-1.9,4-2.8,6.6-2.8s4.8,0.9,6.7,2.7c1.9,1.8,2.8,4,2.8,6.6l0.1,6.3c0,1.1-0.3,2.4-1,4
			c-0.6,1.6-1.4,2.3-2.1,2.4v3.1L336.4,301.2z"/>
		<path class="st0" d="M246.4,278.4c-0.4,0.4-0.9,0.6-1.4,0.6l-23.3,0.2c-0.5,0-1-0.2-1.4-0.6c-0.4-0.4-0.6-0.8-0.6-1.4v-3.9
			c0-0.5,0.2-1,0.5-1.4c0.4-0.4,0.8-0.6,1.4-0.6l23.3-0.2c0.5,0,1,0.2,1.4,0.6c0.4,0.4,0.6,0.8,0.6,1.4v3.9
			C246.9,277.5,246.7,278,246.4,278.4z M262,289.9c-0.4,0.4-0.8,0.6-1.4,0.6l-38.8,0.3c-0.5,0-1-0.2-1.4-0.6
			c-0.4-0.4-0.6-0.8-0.6-1.3V285c0-0.5,0.2-1,0.5-1.4c0.4-0.4,0.8-0.6,1.4-0.6l38.8-0.3c0.5,0,1,0.2,1.4,0.6
			c0.4,0.4,0.6,0.8,0.6,1.4v3.9C262.5,289,262.4,289.5,262,289.9z M254.3,301.6c-0.4,0.4-0.8,0.6-1.4,0.6l-31,0.2
			c-0.6,0-1-0.2-1.4-0.6c-0.4-0.3-0.5-0.8-0.5-1.3v-3.9c0-0.5,0.2-1,0.5-1.4c0.4-0.4,0.8-0.6,1.4-0.6l31-0.2c0.5,0,1,0.2,1.4,0.6
			s0.6,0.8,0.6,1.4v3.9C254.9,300.7,254.7,301.2,254.3,301.6z"/>
	</g>
	<g>
		<g>
			<path class="st1" d="M207.4,415.4l0-28.2c0-2.6,0.5-4.9,1.7-6.7c1.1-1.8,2.5-2.7,4.1-2.7l127.3,0c1.6,0,3,0.9,4.1,2.7
				c1.1,1.8,1.7,4.1,1.6,6.7l0,28.2L207.4,415.4z M346.2,412.4l0,63.6c0,1.6-0.5,3-1.6,4.1s-2.5,1.7-4.1,1.7l-127.3,0
				c-1.6,0-3-0.5-4.1-1.7c-1.1-1.1-1.7-2.5-1.7-4.1l0-63.5L346.2,412.4z M219,470.3l46.3,0l0-23.1l-46.3,0L219,470.3z"/>
			<rect x="212.8" y="443.9" class="st1" width="66.1" height="33.3"/>
		</g>
		<path class="st0" d="M302.1,453.1H299l-0.1-18.5l15.4-0.1l0.1,9.2h3.1v3.1h-3.1v3.1l-12.3,0.1V453.1z M308.3,456.2h6.2l0.1,15.4
			l-15.4,0.1l-0.2-15.5h6.2v-3.1h3.1V456.2z M302,447l9.3-0.1l-0.1-9.2l-9.3,0.1L302,447z M302.1,459.3l0.1,9.2l9.3-0.1l-0.1-9.2
			L302.1,459.3z M305.1,440.8h3.1v3.1h-3.1V440.8z M308.3,462.3h-3.1v3.1h3.1V462.3z M329.9,465.2v-3.1h-6.2l-0.1-9.3l-9.3,0.1v3.1
			h6.2v6.2h-3.1v3.1h3.1v3.1h6.2v-3.1L329.9,465.2z M329.8,449.8v3.1h6.2v6.2l-9.3,0.1l-0.1-9.3l-6.2,0.1l-0.1-9.3h-3.1v-6.2
			l18.5-0.1l0.1,15.4H329.8z M317.6,471.5h3.1v-3.1h-3.1V471.5z M332.9,446.7l-0.1-9.2l-9.3,0.1l0.1,9.3L332.9,446.7z M326.7,443.7
			h3.1v-3.1h-3.1V443.7z M326.9,468.4v3.1l9.2-0.1v-3.1L326.9,468.4z M333,465.2h3.1v-3.1H333V465.2z"/>
		<path class="st0" d="M336.4,421.2v4.5l-37.7,0.3v-4.5l12.5-8.2v-3.1c-0.8,0-1.5-0.8-2.2-2.3c-0.7-1.6-1-2.9-1-3.9v-6.3
			c0-2.6,0.9-4.8,2.7-6.7c1.8-1.9,4-2.8,6.6-2.8s4.8,0.9,6.7,2.7c1.9,1.8,2.8,4,2.8,6.6l0.1,6.3c0,1.1-0.3,2.4-1,4
			c-0.6,1.6-1.4,2.3-2.1,2.4v3.1L336.4,421.2z"/>
		<path class="st0" d="M246.4,398.4c-0.4,0.4-0.9,0.6-1.4,0.6l-23.3,0.2c-0.5,0-1-0.2-1.4-0.6c-0.4-0.4-0.6-0.8-0.6-1.4v-3.9
			c0-0.5,0.2-1,0.5-1.4c0.4-0.4,0.8-0.6,1.4-0.6l23.3-0.2c0.5,0,1,0.2,1.4,0.6c0.4,0.4,0.6,0.8,0.6,1.4v3.9
			C246.9,397.5,246.7,398,246.4,398.4z M262,409.9c-0.4,0.4-0.8,0.6-1.4,0.6l-38.8,0.3c-0.5,0-1-0.2-1.4-0.6
			c-0.4-0.4-0.6-0.8-0.6-1.3V405c0-0.5,0.2-1,0.5-1.4c0.4-0.4,0.8-0.6,1.4-0.6l38.8-0.3c0.5,0,1,0.2,1.4,0.6
			c0.4,0.4,0.6,0.8,0.6,1.4v3.9C262.5,409,262.4,409.5,262,409.9z M254.3,421.6c-0.4,0.4-0.8,0.6-1.4,0.6l-31,0.2
			c-0.6,0-1-0.2-1.4-0.6c-0.4-0.3-0.5-0.8-0.5-1.3v-3.9c0-0.5,0.2-1,0.5-1.4c0.4-0.4,0.8-0.6,1.4-0.6l31-0.2c0.5,0,1,0.2,1.4,0.6
			s0.6,0.8,0.6,1.4v3.9C254.9,420.7,254.7,421.2,254.3,421.6z"/>
	</g>
</g>
</svg>
