<?xml version="1.0" encoding="utf-8"?>
<!-- Generator: Adobe Illustrator 16.0.0, SVG Export Plug-In . SVG Version: 6.00 Build 0)  -->
<!DOCTYPE svg PUBLIC "-//W3C//DTD SVG 1.1//EN" "http://www.w3.org/Graphics/SVG/1.1/DTD/svg11.dtd" [
	<!ENTITY ns_extend "http://ns.adobe.com/Extensibility/1.0/">
	<!ENTITY ns_ai "http://ns.adobe.com/AdobeIllustrator/10.0/">
	<!ENTITY ns_graphs "http://ns.adobe.com/Graphs/1.0/">
	<!ENTITY ns_vars "http://ns.adobe.com/Variables/1.0/">
	<!ENTITY ns_imrep "http://ns.adobe.com/ImageReplacement/1.0/">
	<!ENTITY ns_sfw "http://ns.adobe.com/SaveForWeb/1.0/">
	<!ENTITY ns_custom "http://ns.adobe.com/GenericCustomNamespace/1.0/">
	<!ENTITY ns_adobe_xpath "http://ns.adobe.com/XPath/1.0/">
]>
<svg version="1.1" id="Layer_1" xmlns:x="&ns_extend;" xmlns:i="&ns_ai;" xmlns:graph="&ns_graphs;"
	 xmlns="http://www.w3.org/2000/svg" xmlns:xlink="http://www.w3.org/1999/xlink" x="0px" y="0px" width="375.5px" height="500px"
	 viewBox="0 0 375.5 500" enable-background="new 0 0 375.5 500" xml:space="preserve">
<metadata>
	<sfw  xmlns="&ns_sfw;">
		<slices></slices>
		<sliceSourceBounds  height="496.639" width="372.608" x="111.057" y="172.53" bottomLeftOrigin="true"></sliceSourceBounds>
	</sfw>
</metadata>
<g>
	<path fill="#CACACA" d="M208.415,208.308l165.5,0.064l-0.107,279.299c-0.001,3-1.003,5.499-2.902,7.399
		c-1.903,1.9-4.401,2.898-7.501,2.898l-351.701-0.138c-3-0.002-5.5-1.002-7.499-2.902c-1.9-1.901-2.898-4.402-2.897-7.402
		l0.185-475.9c0.001-3,1.002-5.499,2.904-7.399c1.9-1.899,4.4-2.898,7.4-2.897l196.5,0.076L208.415,208.308z M373.631,166.373
		l-124.099,0.452l-0.45-124.2L373.631,166.373z"/>
	<g>
		<g>
			<path fill="#FFFFFF" d="M29.409,55.368l0.016-28.201c0.02-2.601,0.537-4.896,1.652-6.688c1.113-1.791,2.521-2.681,4.12-2.668
				L162.5,17.786c1.601,0.012,2.993,0.923,4.08,2.731c1.086,1.808,1.667,4.113,1.648,6.713l-0.017,28.2L29.409,55.368z
				 M168.235,52.431l0.013,63.603c-0.012,1.601-0.523,2.996-1.631,4.088c-1.109,1.091-2.513,1.68-4.113,1.668l-127.304,0.024
				c-1.6-0.012-2.996-0.523-4.086-1.731c-1.092-1.108-1.681-2.513-1.669-4.113L29.43,52.468L168.235,52.431z M40.989,110.258
				l46.301-0.045l-0.023-23.1l-46.302,0.045L40.989,110.258z"/>
			<rect x="34.865" y="83.866" fill="#FFFFFF" width="66.103" height="33.301"/>
		</g>
		<path fill="#EF563F" d="M124.1,93.1H121L120.9,74.6l15.4-0.1l0.1,9.2h3.101v3.1H136.4v3.1L124.1,90V93.1z M130.3,96.2h6.2
			l0.1,15.4l-15.399,0.1L121,96.2h6.2v-3.1h3.1V96.2z M124,87l9.3-0.1l-0.1-9.2l-9.301,0.1L124,87z M124.1,99.3l0.101,9.2l9.3-0.1
			l-0.101-9.2L124.1,99.3z M127.1,80.8h3.101v3.1H127.1V80.8z M130.3,102.3h-3.1v3.1h3.1V102.3z M151.9,105.2v-3.1H145.7l-0.101-9.3
			l-9.3,0.1V96h6.2v6.2H139.4v3.1h3.101v3.1h6.2v-3.1L151.9,105.2z M151.8,89.8v3.1h6.2v6.2l-9.3,0.1l-0.101-9.3l-6.2,0.1l-0.1-9.3
			h-3.1v-6.2l18.5-0.1l0.1,15.4H151.8z M139.6,111.5h3.101v-3.1H139.6V111.5z M154.9,86.7l-0.1-9.2l-9.3,0.1l0.1,9.3L154.9,86.7z
			 M148.7,83.7h3.1v-3.1h-3.1V83.7z M148.9,108.4v3.1l9.2-0.1v-3.1L148.9,108.4z M155,105.2h3.1v-3.1H155V105.2z"/>
		<path fill="#EF563F" d="M158.4,61.2v4.5L120.7,66v-4.5l12.5-8.2v-3.1c-0.801,0-1.5-0.8-2.2-2.3c-0.7-1.6-1-2.9-1-3.9v-6.3
			c0-2.6,0.899-4.8,2.7-6.7c1.8-1.9,4-2.8,6.6-2.8s4.8,0.9,6.7,2.7c1.899,1.8,2.8,4,2.8,6.6l0.1,6.3c0,1.1-0.3,2.4-1,4
			c-0.6,1.6-1.399,2.3-2.1,2.4v3.1L158.4,61.2z"/>
		<path fill="#EF563F" d="M68.4,38.4C68,38.8,67.5,39,67,39l-23.3,0.2c-0.5,0-1-0.2-1.4-0.6s-0.6-0.8-0.6-1.4v-3.9
			c0-0.5,0.199-1,0.5-1.4c0.399-0.4,0.8-0.6,1.399-0.6l23.3-0.2c0.5,0,1,0.2,1.4,0.6c0.4,0.4,0.6,0.8,0.6,1.4V37
			C68.9,37.5,68.7,38,68.4,38.4z M84,49.9c-0.4,0.4-0.8,0.6-1.4,0.6l-38.8,0.3c-0.5,0-1-0.2-1.4-0.6c-0.399-0.4-0.6-0.8-0.6-1.3V45
			c0-0.5,0.2-1,0.5-1.4c0.4-0.4,0.8-0.6,1.4-0.6l38.8-0.3c0.5,0,1,0.2,1.399,0.6c0.4,0.4,0.601,0.8,0.601,1.4v3.9
			C84.5,49,84.4,49.5,84,49.9z M76.3,61.6c-0.4,0.4-0.8,0.6-1.4,0.6l-31,0.2c-0.6,0-1-0.2-1.399-0.6C42.1,61.5,42,61,42,60.5v-3.9
			c0-0.5,0.2-1,0.5-1.4c0.399-0.4,0.8-0.6,1.399-0.6l31-0.2c0.5,0,1,0.2,1.4,0.6s0.6,0.8,0.6,1.4v3.9C76.9,60.7,76.7,61.2,76.3,61.6
			z"/>
	</g>
	<g>
		<g>
			<path fill="#FFFFFF" d="M29.409,175.368l0.016-28.201c0.02-2.601,0.537-4.896,1.652-6.688c1.113-1.791,2.521-2.681,4.12-2.668
				l127.304-0.024c1.601,0.012,2.992,0.923,4.08,2.731c1.086,1.808,1.668,4.113,1.648,6.713l-0.018,28.2L29.409,175.368z
				 M168.235,172.431l0.013,63.603c-0.013,1.601-0.522,2.996-1.631,4.088c-1.108,1.091-2.513,1.68-4.113,1.668l-127.304,0.024
				c-1.6-0.012-2.996-0.523-4.086-1.731c-1.092-1.108-1.681-2.513-1.669-4.113l-0.014-63.501L168.235,172.431z M40.989,230.258
				l46.301-0.045l-0.023-23.1l-46.302,0.045L40.989,230.258z"/>
			<rect x="34.865" y="203.866" fill="#FFFFFF" width="66.103" height="33.301"/>
		</g>
		<path fill="#EF563F" d="M124.1,213.1H121l-0.101-18.5l15.4-0.1l0.1,9.2h3.101v3.1H136.4v3.1l-12.3,0.1V213.1z M130.3,216.2h6.2
			l0.1,15.4l-15.399,0.1l-0.2-15.5h6.2v-3.1h3.1V216.2z M124,207l9.3-0.1l-0.1-9.2l-9.301,0.1L124,207z M124.1,219.3l0.101,9.2
			l9.3-0.1l-0.101-9.2L124.1,219.3z M127.1,200.8h3.101v3.1H127.1V200.8z M130.3,222.3h-3.1v3.1h3.1V222.3z M151.9,225.2v-3.1H145.7
			l-0.101-9.3l-9.3,0.1v3.1h6.2v6.2H139.4v3.1h3.101v3.1h6.2v-3.1L151.9,225.2z M151.8,209.8v3.1h6.2v6.2l-9.3,0.1l-0.101-9.3
			l-6.2,0.1l-0.1-9.3h-3.1v-6.2l18.5-0.1l0.1,15.4H151.8z M139.6,231.5h3.101v-3.1H139.6V231.5z M154.9,206.7l-0.1-9.2l-9.3,0.1
			l0.1,9.3L154.9,206.7z M148.7,203.7h3.1v-3.1h-3.1V203.7z M148.9,228.4v3.1l9.2-0.1v-3.1L148.9,228.4z M155,225.2h3.1v-3.1H155
			V225.2z"/>
		<path fill="#EF563F" d="M158.4,181.2v4.5L120.7,186v-4.5l12.5-8.2v-3.1c-0.801,0-1.5-0.8-2.2-2.3c-0.7-1.6-1-2.9-1-3.9v-6.3
			c0-2.6,0.899-4.8,2.7-6.7c1.8-1.9,4-2.8,6.6-2.8s4.8,0.9,6.7,2.7c1.899,1.8,2.8,4,2.8,6.6l0.1,6.3c0,1.1-0.3,2.4-1,4
			c-0.6,1.6-1.399,2.3-2.1,2.4v3.1L158.4,181.2z"/>
		<path fill="#EF563F" d="M68.4,158.4C68,158.8,67.5,159,67,159l-23.3,0.2c-0.5,0-1-0.2-1.4-0.6s-0.6-0.8-0.6-1.4v-3.9
			c0-0.5,0.199-1,0.5-1.4c0.399-0.4,0.8-0.6,1.399-0.6l23.3-0.2c0.5,0,1,0.2,1.4,0.6c0.4,0.4,0.6,0.8,0.6,1.4v3.9
			C68.9,157.5,68.7,158,68.4,158.4z M84,169.9c-0.4,0.4-0.8,0.6-1.4,0.6l-38.8,0.3c-0.5,0-1-0.2-1.4-0.6c-0.399-0.4-0.6-0.8-0.6-1.3
			V165c0-0.5,0.2-1,0.5-1.4c0.4-0.4,0.8-0.6,1.4-0.6l38.8-0.3c0.5,0,1,0.2,1.399,0.6c0.4,0.4,0.601,0.8,0.601,1.4v3.9
			C84.5,169,84.4,169.5,84,169.9z M76.3,181.6c-0.4,0.4-0.8,0.6-1.4,0.6l-31,0.2c-0.6,0-1-0.2-1.399-0.6c-0.4-0.3-0.5-0.8-0.5-1.3
			v-3.9c0-0.5,0.2-1,0.5-1.4c0.399-0.4,0.8-0.6,1.399-0.6l31-0.2c0.5,0,1,0.2,1.4,0.6s0.6,0.8,0.6,1.4v3.9
			C76.9,180.7,76.7,181.2,76.3,181.6z"/>
	</g>
	<g>
		<g>
			<path fill="#FFFFFF" d="M29.409,295.367l0.016-28.2c0.02-2.601,0.537-4.896,1.652-6.688c1.113-1.791,2.521-2.68,4.12-2.668
				l127.304-0.024c1.601,0.012,2.993,0.923,4.08,2.731c1.086,1.809,1.667,4.113,1.648,6.713l-0.017,28.2L29.409,295.367z
				 M168.235,292.431l0.013,63.603c-0.012,1.601-0.523,2.996-1.631,4.088c-1.109,1.092-2.513,1.68-4.113,1.668l-127.304,0.024
				c-1.6-0.012-2.996-0.522-4.086-1.731c-1.092-1.107-1.681-2.513-1.669-4.113l-0.014-63.501L168.235,292.431z M40.989,350.258
				l46.301-0.045l-0.023-23.101l-46.302,0.045L40.989,350.258z"/>
			<rect x="34.865" y="323.866" fill="#FFFFFF" width="66.103" height="33.301"/>
		</g>
		<path fill="#EF563F" d="M124.1,333.1H121l-0.101-18.5l15.4-0.1l0.1,9.2h3.101v3.1H136.4v3.101l-12.3,0.1V333.1z M130.3,336.2h6.2
			l0.1,15.399L121.2,351.7l-0.2-15.5h6.2V333.1h3.1V336.2z M124,327l9.3-0.1l-0.1-9.2l-9.301,0.1L124,327z M124.1,339.3l0.101,9.2
			l9.3-0.1l-0.101-9.2L124.1,339.3z M127.1,320.8h3.101v3.101H127.1V320.8z M130.3,342.3h-3.1v3.101h3.1V342.3z M151.9,345.2V342.1
			H145.7l-0.101-9.3l-9.3,0.101v3.1h6.2v6.2H139.4v3.1h3.101v3.101h6.2V345.3L151.9,345.2z M151.8,329.8v3.101h6.2v6.199l-9.3,0.101
			l-0.101-9.3l-6.2,0.1l-0.1-9.3h-3.1v-6.2l18.5-0.1l0.1,15.399H151.8z M139.6,351.5h3.101v-3.1H139.6V351.5z M154.9,326.7l-0.1-9.2
			l-9.3,0.1l0.1,9.301L154.9,326.7z M148.7,323.7h3.1V320.6h-3.1V323.7z M148.9,348.4v3.1l9.2-0.1V348.3L148.9,348.4z M155,345.2
			h3.1V342.1H155V345.2z"/>
		<path fill="#EF563F" d="M158.4,301.2v4.5L120.7,306v-4.5l12.5-8.2v-3.1c-0.801,0-1.5-0.8-2.2-2.3c-0.7-1.601-1-2.9-1-3.9v-6.3
			c0-2.601,0.899-4.8,2.7-6.7c1.8-1.9,4-2.8,6.6-2.8s4.8,0.899,6.7,2.7c1.899,1.8,2.8,4,2.8,6.6l0.1,6.3c0,1.101-0.3,2.4-1,4
			c-0.6,1.601-1.399,2.3-2.1,2.4v3.1L158.4,301.2z"/>
		<path fill="#EF563F" d="M68.4,278.4C68,278.8,67.5,279,67,279l-23.3,0.2c-0.5,0-1-0.2-1.4-0.601c-0.4-0.399-0.6-0.8-0.6-1.399
			v-3.9c0-0.5,0.199-1,0.5-1.399C42.6,271.5,43,271.3,43.6,271.3l23.3-0.2c0.5,0,1,0.2,1.4,0.601c0.4,0.399,0.6,0.8,0.6,1.399v3.9
			C68.9,277.5,68.7,278,68.4,278.4z M84,289.9c-0.4,0.399-0.8,0.6-1.4,0.6l-38.8,0.3c-0.5,0-1-0.2-1.4-0.6
			c-0.399-0.4-0.6-0.8-0.6-1.3V285c0-0.5,0.2-1,0.5-1.4c0.4-0.399,0.8-0.6,1.4-0.6l38.8-0.3c0.5,0,1,0.2,1.399,0.6
			c0.4,0.4,0.601,0.8,0.601,1.4v3.899C84.5,289,84.4,289.5,84,289.9z M76.3,301.6c-0.4,0.4-0.8,0.601-1.4,0.601l-31,0.2
			c-0.6,0-1-0.2-1.399-0.601c-0.4-0.3-0.5-0.8-0.5-1.3v-3.9c0-0.5,0.2-1,0.5-1.399c0.399-0.4,0.8-0.601,1.399-0.601l31-0.199
			c0.5,0,1,0.199,1.4,0.6s0.6,0.8,0.6,1.4v3.899C76.9,300.7,76.7,301.2,76.3,301.6z"/>
	</g>
	<g>
		<g>
			<path fill="#FFFFFF" d="M29.409,415.367l0.016-28.2c0.02-2.601,0.537-4.896,1.652-6.688c1.113-1.791,2.521-2.68,4.12-2.668
				l127.304-0.024c1.601,0.012,2.992,0.923,4.08,2.731c1.086,1.809,1.668,4.113,1.648,6.713l-0.018,28.2L29.409,415.367z
				 M168.235,412.431l0.013,63.603c-0.013,1.601-0.522,2.996-1.631,4.088s-2.513,1.68-4.113,1.668l-127.304,0.024
				c-1.6-0.012-2.996-0.522-4.086-1.731c-1.092-1.107-1.681-2.513-1.669-4.113l-0.014-63.501L168.235,412.431z M40.989,470.258
				l46.301-0.045l-0.023-23.101l-46.302,0.045L40.989,470.258z"/>
			<rect x="34.865" y="443.866" fill="#FFFFFF" width="66.103" height="33.301"/>
		</g>
		<path fill="#EF563F" d="M124.1,453.1H121l-0.101-18.5l15.4-0.1l0.1,9.2h3.101v3.1H136.4v3.101l-12.3,0.1V453.1z M130.3,456.2h6.2
			l0.1,15.399L121.2,471.7l-0.2-15.5h6.2V453.1h3.1V456.2z M124,447l9.3-0.1l-0.1-9.2l-9.301,0.1L124,447z M124.1,459.3l0.101,9.2
			l9.3-0.1l-0.101-9.2L124.1,459.3z M127.1,440.8h3.101v3.101H127.1V440.8z M130.3,462.3h-3.1v3.101h3.1V462.3z M151.9,465.2V462.1
			H145.7l-0.101-9.3l-9.3,0.101v3.1h6.2v6.2H139.4v3.1h3.101v3.101h6.2V465.3L151.9,465.2z M151.8,449.8v3.101h6.2v6.199l-9.3,0.101
			l-0.101-9.3l-6.2,0.1l-0.1-9.3h-3.1v-6.2l18.5-0.1l0.1,15.399H151.8z M139.6,471.5h3.101v-3.1H139.6V471.5z M154.9,446.7l-0.1-9.2
			l-9.3,0.1l0.1,9.301L154.9,446.7z M148.7,443.7h3.1V440.6h-3.1V443.7z M148.9,468.4v3.1l9.2-0.1V468.3L148.9,468.4z M155,465.2
			h3.1V462.1H155V465.2z"/>
		<path fill="#EF563F" d="M158.4,421.2v4.5L120.7,426v-4.5l12.5-8.2v-3.1c-0.801,0-1.5-0.8-2.2-2.3c-0.7-1.601-1-2.9-1-3.9v-6.3
			c0-2.601,0.899-4.8,2.7-6.7c1.8-1.9,4-2.8,6.6-2.8s4.8,0.899,6.7,2.7c1.899,1.8,2.8,4,2.8,6.6l0.1,6.3c0,1.101-0.3,2.4-1,4
			c-0.6,1.601-1.399,2.3-2.1,2.4v3.1L158.4,421.2z"/>
		<path fill="#EF563F" d="M68.4,398.4C68,398.8,67.5,399,67,399l-23.3,0.2c-0.5,0-1-0.2-1.4-0.601c-0.4-0.399-0.6-0.8-0.6-1.399
			v-3.9c0-0.5,0.199-1,0.5-1.399C42.6,391.5,43,391.3,43.6,391.3l23.3-0.2c0.5,0,1,0.2,1.4,0.601c0.4,0.399,0.6,0.8,0.6,1.399v3.9
			C68.9,397.5,68.7,398,68.4,398.4z M84,409.9c-0.4,0.399-0.8,0.6-1.4,0.6l-38.8,0.3c-0.5,0-1-0.2-1.4-0.6
			c-0.399-0.4-0.6-0.8-0.6-1.3V405c0-0.5,0.2-1,0.5-1.4c0.4-0.399,0.8-0.6,1.4-0.6l38.8-0.3c0.5,0,1,0.2,1.399,0.6
			c0.4,0.4,0.601,0.8,0.601,1.4v3.899C84.5,409,84.4,409.5,84,409.9z M76.3,421.6c-0.4,0.4-0.8,0.601-1.4,0.601l-31,0.2
			c-0.6,0-1-0.2-1.399-0.601c-0.4-0.3-0.5-0.8-0.5-1.3v-3.9c0-0.5,0.2-1,0.5-1.399c0.399-0.4,0.8-0.601,1.399-0.601l31-0.199
			c0.5,0,1,0.199,1.4,0.6s0.6,0.8,0.6,1.4v3.899C76.9,420.7,76.7,421.2,76.3,421.6z"/>
	</g>
	<g>
		<g>
			<path fill="#FFFFFF" d="M207.385,295.367l0.016-28.2c0.02-2.601,0.537-4.896,1.651-6.688c1.113-1.791,2.521-2.68,4.12-2.668
				l127.304-0.024c1.601,0.012,2.993,0.923,4.08,2.731c1.086,1.809,1.667,4.113,1.647,6.713l-0.016,28.2L207.385,295.367z
				 M346.21,292.431l0.013,63.603c-0.012,1.601-0.523,2.996-1.631,4.088c-1.109,1.092-2.513,1.68-4.113,1.668l-127.304,0.024
				c-1.6-0.012-2.996-0.522-4.087-1.731c-1.092-1.107-1.68-2.513-1.668-4.113l-0.014-63.501L346.21,292.431z M218.964,350.258
				l46.302-0.045l-0.023-23.101l-46.302,0.045L218.964,350.258z"/>
			<rect x="212.841" y="323.866" fill="#FFFFFF" width="66.102" height="33.301"/>
		</g>
		<path fill="#EF563F" d="M302.075,333.1h-3.1l-0.101-18.5l15.4-0.1l0.1,9.2h3.101v3.1h-3.101v3.101l-12.3,0.1V333.1z
			 M308.276,336.2h6.2l0.1,15.399l-15.399,0.101l-0.2-15.5h6.2V333.1h3.1V336.2z M301.976,327l9.3-0.1l-0.1-9.2l-9.301,0.1
			L301.976,327z M302.075,339.3l0.101,9.2l9.3-0.1l-0.101-9.2L302.075,339.3z M305.075,320.8h3.101v3.101h-3.101V320.8z
			 M308.276,342.3h-3.1v3.101h3.1V342.3z M329.875,345.2V342.1h-6.199l-0.101-9.3l-9.3,0.101v3.1h6.2v6.2h-3.101v3.1h3.101v3.101
			h6.2V345.3L329.875,345.2z M329.776,329.8v3.101h6.2v6.199l-9.3,0.101l-0.101-9.3l-6.2,0.1l-0.1-9.3h-3.1v-6.2l18.5-0.1
			l0.1,15.399H329.776z M317.575,351.5h3.101v-3.1h-3.101V351.5z M332.875,326.7l-0.1-9.2l-9.3,0.1l0.1,9.301L332.875,326.7z
			 M326.676,323.7h3.1V320.6h-3.1V323.7z M326.875,348.4v3.1l9.2-0.1V348.3L326.875,348.4z M332.976,345.2h3.1V342.1h-3.1V345.2z"/>
		<path fill="#EF563F" d="M336.375,301.2v4.5l-37.699,0.3v-4.5l12.5-8.2v-3.1c-0.801,0-1.5-0.8-2.2-2.3c-0.7-1.601-1-2.9-1-3.9v-6.3
			c0-2.601,0.899-4.8,2.7-6.7c1.8-1.9,4-2.8,6.6-2.8s4.8,0.899,6.7,2.7c1.899,1.8,2.8,4,2.8,6.6l0.1,6.3c0,1.101-0.3,2.4-1,4
			c-0.6,1.601-1.399,2.3-2.1,2.4v3.1L336.375,301.2z"/>
		<path fill="#EF563F" d="M246.375,278.4c-0.399,0.399-0.899,0.6-1.399,0.6l-23.3,0.2c-0.5,0-1-0.2-1.4-0.601
			c-0.4-0.399-0.6-0.8-0.6-1.399v-3.9c0-0.5,0.199-1,0.5-1.399c0.399-0.4,0.8-0.601,1.399-0.601l23.3-0.2c0.5,0,1,0.2,1.4,0.601
			c0.4,0.399,0.6,0.8,0.6,1.399v3.9C246.875,277.5,246.676,278,246.375,278.4z M261.976,289.9c-0.4,0.399-0.8,0.6-1.4,0.6l-38.8,0.3
			c-0.5,0-1-0.2-1.4-0.6c-0.399-0.4-0.6-0.8-0.6-1.3V285c0-0.5,0.2-1,0.5-1.4c0.4-0.399,0.8-0.6,1.4-0.6l38.8-0.3
			c0.5,0,1,0.2,1.399,0.6c0.4,0.4,0.601,0.8,0.601,1.4v3.899C262.476,289,262.375,289.5,261.976,289.9z M254.276,301.6
			c-0.4,0.4-0.8,0.601-1.4,0.601l-31,0.2c-0.6,0-1-0.2-1.399-0.601c-0.4-0.3-0.5-0.8-0.5-1.3v-3.9c0-0.5,0.2-1,0.5-1.399
			c0.399-0.4,0.8-0.601,1.399-0.601l31-0.199c0.5,0,1,0.199,1.4,0.6s0.6,0.8,0.6,1.4v3.899
			C254.875,300.7,254.676,301.2,254.276,301.6z"/>
	</g>
	<g>
		<g>
			<path fill="#FFFFFF" d="M207.385,415.367l0.016-28.2c0.02-2.601,0.537-4.896,1.651-6.688c1.113-1.791,2.521-2.68,4.12-2.668
				l127.304-0.024c1.601,0.012,2.992,0.923,4.08,2.731c1.086,1.809,1.668,4.113,1.648,6.713l-0.018,28.2L207.385,415.367z
				 M346.21,412.431l0.013,63.603c-0.013,1.601-0.522,2.996-1.631,4.088s-2.513,1.68-4.113,1.668l-127.304,0.024
				c-1.6-0.012-2.996-0.522-4.087-1.731c-1.092-1.107-1.68-2.513-1.668-4.113l-0.014-63.501L346.21,412.431z M218.964,470.258
				l46.302-0.045l-0.023-23.101l-46.302,0.045L218.964,470.258z"/>
			<rect x="212.841" y="443.866" fill="#FFFFFF" width="66.102" height="33.301"/>
		</g>
		<path fill="#EF563F" d="M302.075,453.1h-3.1l-0.101-18.5l15.4-0.1l0.1,9.2h3.101v3.1h-3.101v3.101l-12.3,0.1V453.1z
			 M308.276,456.2h6.2l0.1,15.399l-15.399,0.101l-0.2-15.5h6.2V453.1h3.1V456.2z M301.976,447l9.3-0.1l-0.1-9.2l-9.301,0.1
			L301.976,447z M302.075,459.3l0.101,9.2l9.3-0.1l-0.101-9.2L302.075,459.3z M305.075,440.8h3.101v3.101h-3.101V440.8z
			 M308.276,462.3h-3.1v3.101h3.1V462.3z M329.875,465.2V462.1h-6.199l-0.101-9.3l-9.3,0.101v3.1h6.2v6.2h-3.101v3.1h3.101v3.101
			h6.2V465.3L329.875,465.2z M329.776,449.8v3.101h6.2v6.199l-9.3,0.101l-0.101-9.3l-6.2,0.1l-0.1-9.3h-3.1v-6.2l18.5-0.1
			l0.1,15.399H329.776z M317.575,471.5h3.101v-3.1h-3.101V471.5z M332.875,446.7l-0.1-9.2l-9.3,0.1l0.1,9.301L332.875,446.7z
			 M326.676,443.7h3.1V440.6h-3.1V443.7z M326.875,468.4v3.1l9.2-0.1V468.3L326.875,468.4z M332.976,465.2h3.1V462.1h-3.1V465.2z"/>
		<path fill="#EF563F" d="M336.375,421.2v4.5l-37.699,0.3v-4.5l12.5-8.2v-3.1c-0.801,0-1.5-0.8-2.2-2.3c-0.7-1.601-1-2.9-1-3.9v-6.3
			c0-2.601,0.899-4.8,2.7-6.7c1.8-1.9,4-2.8,6.6-2.8s4.8,0.899,6.7,2.7c1.899,1.8,2.8,4,2.8,6.6l0.1,6.3c0,1.101-0.3,2.4-1,4
			c-0.6,1.601-1.399,2.3-2.1,2.4v3.1L336.375,421.2z"/>
		<path fill="#EF563F" d="M246.375,398.4c-0.399,0.399-0.899,0.6-1.399,0.6l-23.3,0.2c-0.5,0-1-0.2-1.4-0.601
			c-0.4-0.399-0.6-0.8-0.6-1.399v-3.9c0-0.5,0.199-1,0.5-1.399c0.399-0.4,0.8-0.601,1.399-0.601l23.3-0.2c0.5,0,1,0.2,1.4,0.601
			c0.4,0.399,0.6,0.8,0.6,1.399v3.9C246.875,397.5,246.676,398,246.375,398.4z M261.976,409.9c-0.4,0.399-0.8,0.6-1.4,0.6l-38.8,0.3
			c-0.5,0-1-0.2-1.4-0.6c-0.399-0.4-0.6-0.8-0.6-1.3V405c0-0.5,0.2-1,0.5-1.4c0.4-0.399,0.8-0.6,1.4-0.6l38.8-0.3
			c0.5,0,1,0.2,1.399,0.6c0.4,0.4,0.601,0.8,0.601,1.4v3.899C262.476,409,262.375,409.5,261.976,409.9z M254.276,421.6
			c-0.4,0.4-0.8,0.601-1.4,0.601l-31,0.2c-0.6,0-1-0.2-1.399-0.601c-0.4-0.3-0.5-0.8-0.5-1.3v-3.9c0-0.5,0.2-1,0.5-1.399
			c0.399-0.4,0.8-0.601,1.399-0.601l31-0.199c0.5,0,1,0.199,1.4,0.6s0.6,0.8,0.6,1.4v3.899
			C254.875,420.7,254.676,421.2,254.276,421.6z"/>
	</g>
</g>
</svg>
